<?xml version="1.0" encoding="UTF-8"?>
<svg width="40" height="40" version="1.1" viewBox="0 -960 960 960" xmlns="http://www.w3.org/2000/svg">
 <path d="m196.64-120q-31.637 0-54.137-22.529-22.5-22.53-22.5-54.167t22.529-54.137q22.53-22.5 54.167-22.5t54.137 22.529q22.5 22.53 22.5 54.167t-22.529 54.137q-22.53 22.5-54.167 22.5zm503.36 0q0-121-45.334-225.83-45.333-104.83-124.67-184.17-79.333-79.334-184.22-124.67-104.88-45.334-225.78-45.334v-99.999q142 0 265 53t216 146q93 93 146 216t53 265h-99.999zm-252 0q0-69-25.532-129.15t-70.468-106.18q-44.667-46-103.85-72t-128.15-26v-99.999q90 0 167.5 33.833t135.6 93.117q58.095 59.283 91.5 137.83t33.405 168.55h-100z"/>
</svg>
