<?xml version="1.0" encoding="UTF-8"?>
<svg width="40" height="40" version="1.1" viewBox="0 -960 960 960" xmlns="http://www.w3.org/2000/svg">
 <path d="m480.18-80q-82.822 0-155.67-31.5t-127.18-85.833q-54.333-54.334-85.833-127.33t-31.5-155.33q0-80.333 30.667-152.67 30.666-72.333 84-127.83 53.333-55.5 125.67-88 72.334-32.5 155.04-32.5 19.963 0 39.963 1.667 20 1.666 40.333 6-6.999 41.666 6.334 80.666t41 67.5q27.666 28.5 68.166 42.167t87.834 4.667q-13.333 61.667 17.167 110.33 30.5 48.667 102.5 54 1 9.667 1.166 18.833 0.167 9.167 0.167 18.167 0 81.589-31.5 153.73-31.5 72.136-85.5 126.36t-127 85.569-155.82 31.342zm-60.099-478.67q25.589 0 43.422-17.911 17.833-17.912 17.833-43.5 0-25.589-17.911-43.422-17.912-17.833-43.5-17.833-25.589 0-43.422 17.911-17.833 17.912-17.833 43.5 0 25.589 17.911 43.422 17.912 17.833 43.5 17.833zm-80 200q25.589 0 43.422-17.911 17.833-17.912 17.833-43.5 0-25.589-17.911-43.422-17.912-17.833-43.5-17.833-25.589 0-43.422 17.911-17.833 17.912-17.833 43.5 0 25.589 17.911 43.422 17.912 17.833 43.5 17.833zm259.92 38.667q17 0 28.5-11.5t11.5-28.5q0-17-11.5-28.5t-28.5-11.5q-17 0-28.5 11.5t-11.5 28.5q0 17 11.5 28.5t28.5 11.5zm-120 173.33q135.33 0 229.5-90.334 94.167-90.333 104.5-225-52.666-20.667-84.5-59.667-31.833-39-40.5-88.667-79.667-11-135-68.666-55.333-57.667-65-135.33-76-2.666-139.17 25.667-63.167 28.333-108.33 75.833t-70 108.83q-24.834 61.333-24.834 124 0 139 97.167 236.17t236.17 97.167z"/>
</svg>
