<?xml version="1.0" encoding="UTF-8"?>
<svg width="40" height="40" version="1.1" viewBox="0 -960 960 960" xmlns="http://www.w3.org/2000/svg">
 <path d="M146.666-160q-26.333 0-46.499-20.167Q80-200.333 80-226.666v-506.668q0-26.333 20.167-46.499Q120.333-800 146.666-800H414l66.667 66.666h332.667q26.333 0 46.499 20.167Q880-693.001 880-666.667H452.333l-66.666-66.667H146.666v506.668l100-373.335H940L834.333-209.666q-6.666 24.666-24.5 37.166Q792-160 766.667-160H146.666Zm70-66.666H770l80.001-306.669H296.666l-80 306.669Zm0 0 80-306.669-80 306.669Zm-70-440.001v-66.667 66.667Z"/>
</svg>
