<?xml version="1.0" encoding="UTF-8"?>
<svg width="40" height="40" version="1.1" viewBox="0 -960 960 960" xmlns="http://www.w3.org/2000/svg">
 <path d="M676.666-377.666 637-417.333q26.667-30 40.834-66.333Q692-520 692-560q0-42.667-16.333-81-16.333-38.334-45.667-69l39.333-39.333q38 38 58.334 86.666Q748-614 748-560q0 51.333-19 97.834-19 46.5-52.334 84.5ZM553-501.333 421.333-633q12-10.333 27.334-15.666Q464-654 480-654q39.333 0 66.667 27.333Q574-599.333 574-560q0 16-5.334 31-5.333 15-15.666 27.667Zm217 216.667-39.333-39.333q44.666-49.001 69-109.501Q824-494 824-560q0-68.667-26.166-131.5-26.167-62.833-74.5-111.834l39.333-39.333q56.333 57.334 86.833 130Q880-640 880-560q0 77.333-28.833 148.167Q822.333-341 770-284.666Zm35.667 225.333L513.333-351.667V-120h-66.666v-298.334L272-592.667q-2.667 8-3.334 16-.666 8-.666 16.667 0 42.667 16 81.333Q300-440 330-410l-39.333 39.333q-38-38-58.334-86.666Q212-506 212-560q0-21 3-40.667T225-640l-58.333-58.334q-15.001 33-22.834 67.667T136-560q0 68.667 25.833 131.5t74.833 111.834l-39.333 39.333Q141-334 110.5-407T80-560q0-47.333 11.167-92.833Q102.333-698.334 124-741l-64.667-64.667 47.334-47.666 746.666 746.666-47.666 47.334Z" fill="#cf222e"/>
</svg>
