<?xml version="1.0" encoding="UTF-8"?>
<svg width="40" height="40" version="1.1" viewBox="0 -960 960 960" xmlns="http://www.w3.org/2000/svg">
 <path d="m186.67-186.67h48.333l445-444.34-48.333-48.333-445 444.34v48.333zm-66.666 66.666v-142l559.33-558.33q9.334-9 21.5-14 12.167-5 25.5-5 12.667 0 25 5t22 14.333l47.666 48q10 9.666 14.5 22 4.5 12.333 4.5 24.666 0 12.667-4.833 25.167-4.834 12.499-14.167 21.833l-559 558.33h-142zm652.67-606-46-45.999 46 45.999zm-117 71-24-24.333 48.333 48.333-24.333-24z"/>
</svg>
