<?xml version="1.0" encoding="UTF-8"?>
<svg width="40" height="40" version="1.1" viewBox="0 -960 960 960" xmlns="http://www.w3.org/2000/svg">
 <path d="M226.666-400q0 59.334 26 111.834 26.001 52.5 73.001 88.833-3-9.667-4.334-19.333Q320-228.333 320-238q0-32 12-60t35-51l113-111 113 111q23 23 35 51t12 60q0 9.667-1.333 19.334-1.334 9.666-4.334 19.333 47-36.333 73.001-88.833 26-52.5 26-111.834 0-52.667-21.5-101.834-21.5-49.166-61.834-89.5-20.667 14.334-43.333 22.167Q584-561.334 561-561.334q-61.333 0-103.167-41.333Q416-644 413.667-706v-13.334q-43.667 33-78.334 71.5-34.666 38.5-58.833 79.667T239.5-484q-12.834 43-12.834 84ZM480-366.667l-66.334 65.333q-13 13-20 29.001-7 16-7 34.333 0 38 27.167 64.667T480-146.666q39 0 66.167-26.667T573.334-238q0-18.667-7-34.5-7-15.834-20-28.834L480-366.667ZM480-840v132q0 34 23.5 57t57.5 23q18 0 33.5-7.5T622-658l18-22q74 42 117 117t43 163q0 134-93 227T480-80q-134 0-227-93t-93-227q0-128.333 86.167-246Q332.333-763.667 480-840Z" fill="#bf8700"/>
</svg>
