<?xml version="1.0" encoding="UTF-8"?>
<svg width="40" height="40" version="1.1" viewBox="0 -960 960 960" xmlns="http://www.w3.org/2000/svg">
 <path d="m546.52-633.33c-4.3063 0-8.5238 0.24829-12.656 0.79687-4.1325 0.54858-8.182 1.3872-12.141 2.4844-3.9587 1.0972-7.8402 2.4792-11.625 4.125-3.7848 1.6457-7.4984 3.5713-11.109 5.7656-3.6112 2.1945-6.9479 4.5677-10.031 7.1719-3.0834 2.6042-5.8819 5.4236-8.4375 8.4375-2.5556 3.0139-4.8628 6.2326-6.8906 9.6562-2.0278 3.4236-3.7969 7.0417-5.2969 10.875l-1.3125 4.6875h-5.3438c-2.4444 0.0556-4.8264 0.19615-7.1719 0.46875-2.3455 0.27259-4.6441 0.68227-6.8906 1.1719-2.2465 0.4896-4.4618 1.0746-6.6094 1.7812s-4.2326 1.5139-6.2812 2.4375-4.0503 1.9531-6 3.0938-3.868 2.3924-5.7188 3.75-3.6388 2.8316-5.3906 4.4062c-1.7518 1.5746-3.4565 3.2708-5.1094 5.0625-1.6528 1.7917-3.1945 3.6121-4.6406 5.4844-1.4462 1.8723-2.7917 3.7659-4.0312 5.7188-1.2396 1.9529-2.3889 3.9665-3.4219 6-1.033 2.0335-1.9392 4.1203-2.7656 6.2344-0.82637 2.1141-1.5833 4.2741-2.2031 6.4688s-1.1337 4.4278-1.5469 6.7031c-0.41318 2.2753-0.7309 4.5816-0.9375 6.9375-0.20659 2.3559-0.28125 4.7354-0.28125 7.1719s0.10417 4.8584 0.32813 7.2188 0.58333 4.6533 1.0312 6.9375 0.96875 4.5419 1.6406 6.75c0.67188 2.2081 1.4948 4.3837 2.3906 6.5156 0.89583 2.1319 1.8802 4.2255 3 6.2812 1.1198 2.0558 2.3594 4.0672 3.7031 6.0469 1.3438 1.9796 2.7917 3.909 4.3594 5.8125s3.2708 3.7977 5.0625 5.625c1.7917 1.8274 3.5972 3.5104 5.4844 5.1094 1.8872 1.599 3.8299 3.0826 5.8125 4.4531 1.9826 1.3706 4.0156 2.6547 6.0938 3.7969 2.0781 1.1421 4.2014 2.18 6.375 3.0938 2.1736 0.9137 4.3871 1.7053 6.6562 2.3906 2.2691 0.68528 4.6198 1.2306 6.9844 1.6875s4.7587 0.80282 7.2188 1.0312 4.9444 0.375 7.5 0.375h175.03c4.147 0 8.1251-0.36221 11.953-1.0781 1.914-0.35796 3.7908-0.82244 5.625-1.3594 1.8342-0.53694 3.6361-1.1591 5.3906-1.875s3.4346-1.5426 5.1094-2.4375c1.6748-0.89489 3.3269-1.8792 4.9219-2.9531 3.19-2.1478 6.2228-4.6363 9.0938-7.5 2.8708-2.8637 5.3938-5.865 7.5469-9.0469 1.0766-1.5909 2.056-3.2514 2.9531-4.9219 0.89713-1.6705 1.7198-3.3594 2.4375-5.1094s1.3367-3.5611 1.875-5.3906c0.53828-1.8295 1.0005-3.669 1.3594-5.5781 0.71771-3.8182 1.0781-7.8168 1.0781-11.953 0-4.1363-0.36042-8.1078-1.0781-11.953-0.7177-3.8453-1.799-7.5551-3.2344-11.109-1.4354-3.5542-3.2375-6.9556-5.3906-10.219-2.1531-3.2632-4.676-6.4028-7.5469-9.375-2.871-2.9723-5.9038-5.552-9.0938-7.7812-1.595-1.1146-3.2471-2.1649-4.9219-3.0938-1.6747-0.92886-3.3549-1.7413-5.1094-2.4844s-3.5564-1.4114-5.3906-1.9688c-1.8342-0.55731-3.711-1.0347-5.625-1.4062-3.828-0.74308-7.8061-1.0781-11.953-1.0781h-8.6719l-1.3594-6.7031c-0.36108-2.6111-0.79498-5.1354-1.3594-7.6406-0.56439-2.5052-1.2479-4.9601-2.0156-7.3594s-1.6071-4.7379-2.5781-7.0312c-0.97101-2.2934-2.06-4.5625-3.2344-6.75s-2.4661-4.2934-3.8438-6.375-2.8253-4.118-4.4062-6.0938-3.2782-3.8958-5.0625-5.7656c-1.7843-1.8698-3.6843-3.7205-5.6719-5.4844-1.9875-1.7638-4.0131-3.3785-6.0938-4.9219-2.0807-1.5434-4.2011-2.9896-6.375-4.3125-2.1738-1.3229-4.3892-2.5539-6.6562-3.6562-2.267-1.1024-4.5773-2.0712-6.9375-2.9531-2.3602-0.88192-4.7654-1.6823-7.2188-2.3438-2.4534-0.66144-4.9534-1.1997-7.5-1.6406-2.5466-0.44096-5.1415-0.7639-7.7812-0.98438-2.6397-0.22048-5.3296-0.32812-8.0625-0.32812z" fill="#0969da"/>
 <path d="m39.984-740.02v553.36c0 2.25 0.12153 4.434 0.32812 6.6094 0.20659 2.1753 0.52431 4.3212 0.9375 6.4219s0.92709 4.1615 1.5469 6.1875 1.3299 4.0486 2.1562 6 1.7795 3.842 2.8125 5.7188 2.1354 3.7292 3.375 5.5312 2.5851 3.5695 4.0312 5.2969c1.4462 1.7274 2.9879 3.4098 4.6406 5.0625 1.6527 1.6527 3.382 3.1945 5.1094 4.6406s3.4948 2.7917 5.2969 4.0312 3.6077 2.3889 5.4844 3.4219c1.8767 1.033 3.8143 1.9393 5.7656 2.7656s3.9271 1.5833 5.9531 2.2031c2.026 0.61979 4.0868 1.1337 6.1875 1.5469s4.2465 0.68403 6.4219 0.89062c2.1753 0.2066 4.4062 0.32813 6.6562 0.32813h713.3v-66.656h-713.3v-553.36z"/>
 <path d="m240-879.98c-2.25 0-4.4809 0.0747-6.6562 0.28125-2.1753 0.20659-4.2743 0.52431-6.375 0.9375-2.1007 0.41318-4.2084 0.92709-6.2344 1.5469-2.026 0.61978-4.0018 1.3299-5.9531 2.1562s-3.842 1.7795-5.7188 2.8125-3.7292 2.1823-5.5312 3.4219c-1.8021 1.2396-3.5695 2.5851-5.2969 4.0312-1.7274 1.4462-3.4098 2.9879-5.0625 4.6406-1.6527 1.6528-3.1945 3.3351-4.6406 5.0625s-2.7917 3.4948-4.0312 5.2969c-1.2396 1.8021-2.3889 3.6545-3.4219 5.5312-1.033 1.8767-1.9392 3.7674-2.7656 5.7188-0.82637 1.9514-1.5833 3.9271-2.2031 5.9531-0.61978 2.026-1.1337 4.0868-1.5469 6.1875s-0.73091 4.2465-0.9375 6.4219c-0.20659 2.1753-0.28125 4.4062-0.28125 6.6562v493.31c0 2.25 0.0747 4.4809 0.28125 6.6562 0.20659 2.1753 0.52431 4.3212 0.9375 6.4219s0.92709 4.1615 1.5469 6.1875c0.61979 2.026 1.3768 4.0018 2.2031 5.9531 0.82637 1.9514 1.7327 3.8889 2.7656 5.7656 1.033 1.8767 2.1823 3.6823 3.4219 5.4844 1.2396 1.8021 2.5851 3.5695 4.0312 5.2969s2.9879 3.4098 4.6406 5.0625c1.6528 1.6528 3.3351 3.2414 5.0625 4.6875 1.7274 1.4462 3.4948 2.7917 5.2969 4.0312s3.6545 2.342 5.5312 3.375 3.7674 1.9861 5.7188 2.8125 3.9271 1.5365 5.9531 2.1562c2.026 0.61978 4.1337 1.1337 6.2344 1.5469 2.1007 0.41318 4.1997 0.7309 6.375 0.9375 2.1753 0.20659 4.4062 0.32812 6.6562 0.32812h613.31c2.25 0 4.4809-0.12153 6.6562-0.32812 2.1753-0.2066 4.3212-0.52432 6.4219-0.9375 2.1007-0.41319 4.1615-0.9271 6.1875-1.5469 2.026-0.61978 4.0018-1.3299 5.9531-2.1562s3.8889-1.7795 5.7656-2.8125c1.8767-1.033 3.6823-2.1354 5.4844-3.375s3.5695-2.5851 5.2969-4.0312c1.7274-1.4462 3.4566-3.0348 5.1094-4.6875s3.1945-3.3351 4.6406-5.0625c1.4462-1.7274 2.7917-3.4948 4.0312-5.2969 1.2396-1.8021 2.342-3.6077 3.375-5.4844 1.033-1.8767 1.9861-3.8142 2.8125-5.7656 0.82638-1.9514 1.5365-3.9271 2.1562-5.9531 0.61979-2.026 1.1337-4.0868 1.5469-6.1875s0.73091-4.2465 0.9375-6.4219c0.20659-2.1754 0.32812-4.4063 0.32812-6.6562v-426.66c0-2.25-0.12153-4.4809-0.32812-6.6562-0.20659-2.1754-0.52431-4.2743-0.9375-6.375-0.41319-2.1007-0.92709-4.1615-1.5469-6.1875-0.61978-2.026-1.3299-4.0486-2.1562-6-0.82637-1.9514-1.7795-3.842-2.8125-5.7188-1.033-1.8767-2.1354-3.7292-3.375-5.5312-1.2396-1.8021-2.5851-3.5695-4.0312-5.2969-1.4462-1.7274-2.9879-3.4098-4.6406-5.0625-1.6528-1.6528-3.382-3.1944-5.1094-4.6406-1.7274-1.4462-3.4948-2.7916-5.2969-4.0312-1.8021-1.2396-3.6077-2.3889-5.4844-3.4219-1.8767-1.033-3.8142-1.9392-5.7656-2.7656-1.9514-0.82642-3.9271-1.5833-5.9531-2.2031-2.026-0.61981-4.0868-1.1337-6.1875-1.5469-2.1007-0.41321-4.2465-0.7309-6.4219-0.9375-2.1753-0.20661-4.4062-0.28125-6.6562-0.28125h-306.66l-66.656-66.656zm0 66.656h212.34l66.656 66.656h334.31v426.66h-613.31z"/>
</svg>
