<?xml version="1.0" encoding="UTF-8"?>
<svg width="40" height="40" version="1.1" viewBox="0 -960 960 960" xmlns="http://www.w3.org/2000/svg">
 <path d="m553.31-560.02v86.672h-86.625v66.656h86.625v86.672h66.703v-86.672h86.672v-66.656h-86.672v-86.672z" fill="#2da44e"/>
 <path d="m146.67-800.02c-2.25 0-4.4809 0.11805-6.6562 0.32812-2.1753 0.21007-4.3212 0.51735-6.4219 0.9375s-4.1615 0.96353-6.1875 1.5938-4.0018 1.3628-5.9531 2.2031c-1.9514 0.84029-3.842 1.7621-5.7188 2.8125-1.8767 1.0504-3.7292 2.2083-5.5312 3.4688-1.8021 1.2604-3.5695 2.6545-5.2969 4.125-1.7274 1.4705-3.4098 3.0538-5.0625 4.7344-1.6527 1.6805-3.1945 3.3646-4.6406 5.1094-1.4462 1.7447-2.7917 3.5348-4.0312 5.3438-1.2396 1.809-2.3889 3.658-3.4219 5.5312-1.033 1.8732-1.9861 3.7813-2.8125 5.7188-0.82637 1.9374-1.5365 3.9046-2.1562 5.9062-0.61978 2.0017-1.1337 4.0278-1.5469 6.0938-0.41319 2.0659-0.73091 4.1511-0.9375 6.2812-0.20659 2.1302-0.28125 4.3212-0.28125 6.5156v506.62c0 2.1944 0.07466 4.3854 0.28125 6.5156 0.20659 2.1302 0.52431 4.2153 0.9375 6.2812 0.41319 2.0659 0.92709 4.092 1.5469 6.0938 0.61978 2.0017 1.3299 3.9688 2.1562 5.9062 0.82637 1.9374 1.7795 3.8455 2.8125 5.7188 1.033 1.8732 2.1823 3.7223 3.4219 5.5312 1.2396 1.809 2.5851 3.599 4.0312 5.3438 1.4462 1.7447 2.9879 3.4289 4.6406 5.1094 1.6528 1.6806 3.3351 3.2639 5.0625 4.7344 1.7274 1.4705 3.4948 2.8646 5.2969 4.125 1.8021 1.2604 3.6545 2.4184 5.5312 3.4688 1.8767 1.0504 3.7674 1.9722 5.7188 2.8125 1.9514 0.84029 3.9271 1.5729 5.9531 2.2031s4.0868 1.1736 6.1875 1.5938 4.2465 0.72743 6.4219 0.9375c2.1754 0.21007 4.4063 0.32813 6.6562 0.32813h666.66c2.1944 0 4.3855-0.11806 6.5156-0.32813s4.2153-0.51735 6.2812-0.9375 4.092-0.96353 6.0938-1.5938 3.9688-1.3628 5.9062-2.2031c1.9375-0.8403 3.8455-1.7621 5.7188-2.8125 1.8732-1.0504 3.7223-2.2083 5.5312-3.4688 1.809-1.2604 3.5521-2.6545 5.2969-4.125 1.7447-1.4705 3.4758-3.0538 5.1562-4.7344 1.6806-1.6805 3.2639-3.3646 4.7344-5.1094 1.4705-1.7447 2.8177-3.5348 4.0781-5.3438 1.2604-1.809 2.4184-3.658 3.4688-5.5312 1.0504-1.8732 2.0191-3.7813 2.8594-5.7188 0.84029-1.9375 1.5729-3.9046 2.2031-5.9062 0.63022-2.0017 1.1267-4.0278 1.5469-6.0938 0.42015-2.0659 0.7743-4.1511 0.98437-6.2812 0.21008-2.1302 0.28125-4.3212 0.28125-6.5156v-439.97c0-2.1945-0.0712-4.3854-0.28125-6.5156-0.21007-2.1302-0.56422-4.2153-0.98437-6.2812-0.42015-2.066-0.91666-4.092-1.5469-6.0938-0.63021-2.0018-1.3628-3.9688-2.2031-5.9062-0.84029-1.9375-1.809-3.8455-2.8594-5.7188-1.0504-1.8732-2.2083-3.7223-3.4688-5.5312-1.2604-1.809-2.6076-3.599-4.0781-5.3438-1.4705-1.7448-3.0538-3.4289-4.7344-5.1094-1.6805-1.6806-3.4115-3.2639-5.1562-4.7344-1.7447-1.4705-3.4879-2.8177-5.2969-4.0781s-3.658-2.4184-5.5312-3.4688-3.7813-2.0191-5.7188-2.8594c-1.9375-0.8403-3.9046-1.5729-5.9062-2.2031s-4.0278-1.1736-6.0938-1.5938-4.1511-0.72743-6.2812-0.9375-4.3212-0.28125-6.5156-0.28125h-332.67l-66.656-66.703zm0 66.703h239.67l66.656 66.656h360.33v439.97h-666.66z"/>
</svg>
