<?xml version="1.0" encoding="UTF-8"?>
<svg width="40" height="40" version="1.1" viewBox="0 -960 960 960" xmlns="http://www.w3.org/2000/svg">
 <path d="M481.333-158.667q-132 0-226.333-94t-94.333-226v-32.334L86-436.334 41.333-481 194-633.667 346.666-481 302-436.334l-74.667-74.667v32.334q0 104.667 74.5 179.001 74.5 74.333 179.5 74.333 28 0 53.667-5.333 25.667-5.334 49-16L632.666-198Q596-177.333 558.333-168q-37.666 9.333-77 9.333ZM766.667-325 614-477.667 659.333-523l74.001 74.001v-29.668q0-104.666-74.5-179Q584.333-732 479.333-732q-28 0-53.666 5.666-25.667 5.667-49 15L328-760q36.667-20.667 74.334-29.667 37.666-9 76.999-9 132 0 226.334 94 94.333 94 94.333 226v31.001l74.667-74.667 44.666 44.666L766.667-325Z" fill="#267f99"/>
</svg>
