<?xml version="1.0" encoding="UTF-8"?>
<svg width="40" height="40" version="1.1" viewBox="0 -960 960 960" xmlns="http://www.w3.org/2000/svg">
 <path d="m448.67-280h66.666v-240h-66.666v240zm31.321-316q15.012 0 25.179-9.966 10.166-9.967 10.166-24.7 0-15.3-10.155-25.65t-25.166-10.35q-15.012 0-25.179 10.35-10.166 10.35-10.166 25.65 0 14.733 10.155 24.7 10.155 9.966 25.166 9.966zm0.189 516q-82.822 0-155.67-31.5t-127.18-85.833q-54.333-54.334-85.833-127.23-31.5-72.894-31.5-155.77 0-82.88 31.5-155.77 31.5-72.894 85.833-126.89 54.334-54 127.23-85.5 72.894-31.5 155.77-31.5 82.88 0 155.77 31.5 72.894 31.5 126.89 85.5t85.5 127q31.5 73 31.5 155.82 0 82.822-31.5 155.67t-85.5 127.06q-54 54.21-127 85.833t-155.82 31.623zm0.156-66.666q139 0 236-97.334 97-97.333 97-236.33t-96.875-236q-96.876-97-236.46-97-138.67 0-236 96.875-97.334 96.876-97.334 236.46 0 138.67 97.334 236 97.333 97.334 236.33 97.334z"/>
</svg>
