<?xml version="1.0" encoding="UTF-8"?>
<svg width="40" height="40" version="1.1" viewBox="0 -960 960 960" xmlns="http://www.w3.org/2000/svg">
 <path d="m252-306.67q51.377 0 100.02 11.833t95.978 35.5v-416q-43.667-28.001-94.079-43.001-50.413-15-101.92-15-37.334 0-73.5 8.667-36.167 8.667-71.834 22.667v421.33q32.334-13.334 70.167-19.667t75.167-6.333zm262.67 47.333q48-23.667 94.833-35.5t98.5-11.833q37.334 0 75.834 6t69.5 16.666v-418q-33.667-16-70.715-23.667-37.049-7.667-74.619-7.667-51.667 0-100.67 15t-92.666 43.001v416zm-33.334 99.333q-50-38-108.67-58.667-58.667-20.666-120.67-20.666-38.358 0-75.346 9.666-36.987 9.667-72.654 25-22.4 11-43.2-2.333-20.8-13.334-20.8-38.334v-469.33q0-13.666 6.5-25.333t19.5-18q43.333-21.333 90.263-31.667 46.93-10.333 95.737-10.333 61.333 0 119.5 16.333 58.167 16.334 109.83 49.667 51-33.333 108.5-49.667 57.5-16.333 118.17-16.333 48.579 0 95.29 10.333 46.71 10.334 90.043 31.667 13 6.333 19.834 18 6.833 11.667 6.833 25.333v469.33q0 26.263-21.5 39.965t-43.167 0.702q-35-16-71.987-25.333-36.988-9.333-75.346-9.333-62 0-119.33 21-57.334 21-107.33 58.333z"/>
</svg>
