<?xml version="1.0" encoding="UTF-8"?>
<svg width="40" height="40" version="1.1" viewBox="0 -960 960 960" xmlns="http://www.w3.org/2000/svg">
 <path d="m693.33-466.69h66.656v120h120v66.703h-120v120h-66.656v-120h-120v-66.703h120z" fill="#2da44e"/>
 <path d="m323.34-513.33v66.656h313.31v-66.656z" fill="#0969da"/>
 <g>
  <path d="m323.34-513.33h313.31v66.656h-313.31z"/>
  <path d="m513.33-680.02v66.703h166.69c4.6297 0 9.1377 0.20313 13.594 0.60938 4.456 0.40624 8.8426 1.0156 13.125 1.8281 4.2824 0.8125 8.5006 1.8281 12.609 3.0469 4.1088 1.2187 8.1117 2.6406 12.047 4.2656 3.9352 1.625 7.7697 3.4531 11.531 5.4844 3.7616 2.0312 7.4276 4.2656 11.016 6.7031s7.1325 5.0781 10.547 7.9219c3.4144 2.8437 6.6968 5.8906 9.9375 9.1406 3.2408 3.2501 6.305 6.5642 9.1406 9.9844 2.8356 3.4202 5.4444 6.9097 7.875 10.5 2.4306 3.5903 4.6777 7.302 6.7031 11.062 2.0255 3.7604 3.864 7.6007 5.4844 11.531 1.6204 3.9306 3.0035 7.9462 4.2188 12.047s2.2367 8.2917 3.0469 12.562c0.81019 4.2708 1.423 8.5903 1.8281 13.031s0.60937 8.9827 0.60937 13.594h66.656c0-6.9167-0.28125-13.682-0.89062-20.344-0.30469-3.3307-0.71484-6.6706-1.1719-9.9375-0.45703-3.2669-0.98437-6.5-1.5938-9.7031-0.60937-3.2031-1.3008-6.3763-2.0625-9.5156-0.76171-3.1393-1.5703-6.2057-2.4844-9.2812s-1.9336-6.1289-3-9.1406c-1.0664-3.0117-2.2031-6.0052-3.4219-8.9531-1.2187-2.9479-2.5195-5.8815-3.8906-8.7656-1.3711-2.8841-2.7891-5.711-4.3125-8.5312-1.5234-2.8203-3.1524-5.6341-4.8281-8.3906-1.6758-2.7565-3.4219-5.4635-5.25-8.1562-1.8281-2.6927-3.7383-5.3398-5.7188-7.9688-1.9805-2.6289-4.0078-5.2162-6.1406-7.7812-4.2656-5.1302-8.8594-10.172-13.734-15.047-4.875-4.875-9.8698-9.4219-15-13.688-2.5651-2.1328-5.1523-4.207-7.7812-6.1875-2.6289-1.9805-5.276-3.8906-7.9688-5.7188-2.6927-1.8281-5.4466-3.5742-8.2031-5.25-2.7565-1.6758-5.5234-3.2578-8.3438-4.7812-2.8203-1.5234-5.694-2.9883-8.5781-4.3594-2.8841-1.3711-5.7708-2.6719-8.7188-3.8906-2.9479-1.2188-5.9414-2.3555-8.9531-3.4219s-6.0651-2.0391-9.1406-2.9531c-3.0755-0.91407-6.1888-1.7695-9.3281-2.5312-3.1393-0.76172-6.3125-1.4531-9.5156-2.0625-3.2031-0.60938-6.4362-1.1367-9.7031-1.5938-3.2669-0.45704-6.5599-0.82032-9.8906-1.125-6.6614-0.60938-13.427-0.9375-20.344-0.9375z"/>
  <path d="m279.98-680.02c-6.9166 0-13.682 0.32812-20.344 0.9375-3.3307 0.30468-6.6237 0.66796-9.8906 1.125-3.2669 0.45703-6.5 0.98437-9.7031 1.5938-3.2031 0.60937-6.3763 1.3008-9.5156 2.0625-3.1393 0.76171-6.2526 1.6172-9.3281 2.5312-3.0755 0.91406-6.1289 1.8867-9.1406 2.9531s-6.0052 2.2031-8.9531 3.4219c-2.9479 1.2187-5.8346 2.5195-8.7188 3.8906-2.8841 1.3711-5.7578 2.8359-8.5781 4.3594-2.8203 1.5234-5.5872 3.1055-8.3438 4.7812-2.7565 1.6758-5.5104 3.4219-8.2031 5.25-2.6927 1.8281-5.3398 3.7383-7.9688 5.7188-2.6289 1.9805-5.2161 4.0547-7.7812 6.1875-5.1302 4.2656-10.125 8.8125-15 13.688-4.875 4.875-9.4688 9.9167-13.734 15.047-2.1328 2.5651-4.1602 5.1524-6.1406 7.7812-1.9805 2.6289-3.8906 5.276-5.7188 7.9688-1.8281 2.6927-3.5742 5.3997-5.25 8.1562-1.6758 2.7565-3.3047 5.5703-4.8281 8.3906-1.5234 2.8203-2.9414 5.6471-4.3125 8.5312-1.3711 2.8841-2.6719 5.8177-3.8906 8.7656s-2.3555 5.9414-3.4219 8.9531c-1.0664 3.0117-2.0859 6.0651-3 9.1406s-1.7227 6.1419-2.4844 9.2812-1.4531 6.3125-2.0625 9.5156c-0.60937 3.2031-1.1367 6.4362-1.5938 9.7031s-0.86719 6.6068-1.1719 9.9375c-0.60937 6.6614-0.89062 13.427-0.89062 20.344s0.28125 13.682 0.89062 20.344c0.30469 3.3307 0.71484 6.6706 1.1719 9.9375s0.98438 6.5 1.5938 9.7031c0.60937 3.2031 1.3008 6.3763 2.0625 9.5156s1.5703 6.2057 2.4844 9.2812 1.9336 6.1289 3 9.1406c1.0664 3.0117 2.2031 6.0052 3.4219 8.9531s2.5195 5.8815 3.8906 8.7656c1.3711 2.8841 2.7891 5.7109 4.3125 8.5312 1.5234 2.8203 3.1524 5.6341 4.8281 8.3906 1.6758 2.7565 3.4219 5.4635 5.25 8.1562 1.8281 2.6927 3.7383 5.3398 5.7188 7.9688 1.9805 2.6289 4.0078 5.2162 6.1406 7.7812 4.2656 5.1302 8.8594 10.172 13.734 15.047 4.875 4.875 9.8698 9.4219 15 13.688 2.5651 2.1328 5.1524 4.207 7.7812 6.1875 2.6289 1.9805 5.276 3.8906 7.9688 5.7188 2.6927 1.8281 5.4466 3.5742 8.2031 5.25 2.7565 1.6758 5.5234 3.2578 8.3438 4.7812 2.8203 1.5234 5.694 2.9883 8.5781 4.3594 2.8841 1.3711 5.7708 2.6719 8.7188 3.8906 2.9479 1.2187 5.9414 2.3555 8.9531 3.4219s6.0651 2.0391 9.1406 2.9531c3.0755 0.91406 6.1888 1.7695 9.3281 2.5312 3.1393 0.76171 6.3125 1.4531 9.5156 2.0625 3.2031 0.60937 6.4362 1.1367 9.7031 1.5938 3.2669 0.45703 6.5599 0.82031 9.8906 1.125 6.6615 0.60937 13.427 0.9375 20.344 0.9375h166.69v-66.703h-166.69c-4.6297 0-9.1377-0.20313-13.594-0.60937-4.456-0.40625-8.8426-1.0156-13.125-1.8281-4.2824-0.8125-8.5006-1.8281-12.609-3.0469-4.1088-1.2188-8.1117-2.6406-12.047-4.2656-3.9352-1.625-7.7697-3.4531-11.531-5.4844-3.7616-2.0312-7.4276-4.2656-11.016-6.7031s-7.1325-5.0781-10.547-7.9219c-3.4144-2.8438-6.6968-5.8906-9.9375-9.1406-3.2407-3.2501-6.305-6.5625-9.1406-9.9844-2.8356-3.4218-5.4444-6.9533-7.875-10.547s-4.6777-7.2503-6.7031-11.016c-2.0255-3.7654-3.864-7.641-5.4844-11.578s-3.0035-7.938-4.2188-12.047c-1.2153-4.1089-2.2367-8.2819-3.0469-12.562-0.81018-4.2806-1.423-8.6726-1.8281-13.125-0.40509-4.4524-0.60938-8.9696-0.60938-13.594 0-4.6242 0.20429-9.1899 0.60938-13.641s1.0179-8.8008 1.8281-13.078c0.81019-4.2774 1.8316-8.4586 3.0469-12.562 1.2153-4.104 2.5984-8.1163 4.2188-12.047s3.4589-7.7741 5.4844-11.531c2.0255-3.7571 4.2726-7.4319 6.7031-11.016 2.4306-3.5837 5.0394-7.0897 7.875-10.5 2.8356-3.4103 5.8999-6.7475 9.1406-9.9844 3.2408-3.237 6.5231-6.2614 9.9375-9.0938 3.4144-2.8324 6.9589-5.4472 10.547-7.875s7.254-4.68 11.016-6.7031c3.7616-2.0231 7.596-3.819 11.531-5.4375 3.9352-1.6185 7.9381-3.0518 12.047-4.2656s8.3269-2.2376 12.609-3.0469c4.2824-0.80925 8.669-1.4235 13.125-1.8281 4.456-0.40462 8.9641-0.5625 13.594-0.5625h166.69v-66.703z"/>
 </g>
</svg>
