<?xml version="1.0" encoding="UTF-8"?>
<svg width="40" height="40" version="1.1" viewBox="0 -960 960 960" xmlns="http://www.w3.org/2000/svg">
 <path d="m480-80q-83 0-156-31.5t-127-85.5q-54-54-85.5-127t-31.5-156q0-83 31.5-156t85.5-127q54-54 127-85.5t156-31.5q83 0 156 31.5t127 85.5q54 54 85.5 127t31.5 156q0 83-31.5 156t-85.5 127q-54 54-127 85.5t-156 31.5zm0-66.666q58.675 0 113-19.5 54.329-19.5 98.329-56.501l-468.67-468.67q-36.334 44.667-56.167 98.78-19.834 54.112-19.834 112.55 0 139.58 96.875 236.46 96.876 96.875 236.46 96.875zm256.67-122q35.667-44 56.167-98.329 20.5-54.33 20.5-113 0-139.58-96.875-236.46-96.876-96.875-236.46-96.875-58.442 0-112.55 19.834-54.113 19.833-98.78 56.833l468 468z" fill="#cf222e"/>
</svg>
