<?xml version="1.0" encoding="UTF-8"?>
<svg width="40" height="40" version="1.1" viewBox="0 -960 960 960" xmlns="http://www.w3.org/2000/svg">
 <path d="m448.69-680.02v169.36h-168.7v66.656h168.7v164.02h66.656v-164.02h164.67v-66.656h-164.67v-169.36z" fill="#2da44e"/>
 <path d="m480.33-879.98c-55.253 0-107.17 10.5-155.77 31.5-48.595 21-90.996 49.5-127.22 85.5-36.222 36-64.828 78.295-85.828 126.89-21 48.595-31.5 100.51-31.5 155.77 0 55.253 10.5 107.17 31.5 155.77 21 48.595 49.606 90.996 85.828 127.22 36.223 36.222 78.609 64.828 127.17 85.828 48.563 21 100.46 31.5 155.67 31.5 55.215 0 107.15-10.512 155.81-31.594 48.667-21.082 90.984-49.688 126.98-85.828 36-36.141 64.5-78.516 85.5-127.08 21-48.563 31.5-100.46 31.5-155.67 0-55.215-10.5-107.15-31.5-155.81-21-48.667-49.5-90.984-85.5-126.98-36-36-78.295-64.5-126.89-85.5-48.595-21-100.51-31.5-155.77-31.5zm-0.32812 66.656c93.055 0 171.85 32.318 236.44 96.984 64.583 64.667 96.891 143.35 96.891 236.02 0 92.667-32.318 171.46-96.984 236.34-64.667 64.889-143.35 97.312-236.02 97.312-92.667-1e-5 -171.46-32.423-236.34-97.312-64.889-64.889-97.312-143.57-97.312-236.02 0-93.055 32.423-171.85 97.312-236.44 64.889-64.583 143.57-96.891 236.02-96.891z" style=""/>
</svg>
