<?xml version="1.0" encoding="UTF-8"?>
<svg width="40" height="40" version="1.1" viewBox="0 -960 960 960" xmlns="http://www.w3.org/2000/svg">
 <path d="m312-146.67h336v-124.67q0-70-49-118.67t-119-48.667q-70 0-119 48.667t-49 118.67v124.67zm168-374.67q70 0 119-49t49-119v-124h-336v124q0 70.001 49 119t119 49zm-320 441.33v-66.666h85.333v-124.67q0-67.667 36.167-124.17t97.168-84.5q-61.001-28.667-97.168-85.167t-36.167-124.17v-124h-85.333v-66.666h640v66.666h-85.333v124q0 67.667-36.167 124.17t-97.168 85.167q61.001 28 97.168 84.5t36.167 124.17v124.67h85.333v66.666h-640z"/>
</svg>
