<?xml version="1.0" encoding="UTF-8"?>
<svg width="40" height="40" version="1.1" viewBox="0 -960 960 960" xmlns="http://www.w3.org/2000/svg">
 <path d="m146.67-800.02c-2.25 0-4.4809 0.12153-6.6562 0.32812-2.1753 0.20659-4.3212 0.52431-6.4219 0.9375s-4.1615 0.92709-6.1875 1.5469c-2.026 0.61978-4.0018 1.3299-5.9531 2.1562-1.9514 0.82637-3.842 1.7795-5.7188 2.8125-1.8767 1.033-3.7292 2.1354-5.5312 3.375-1.8021 1.2396-3.5695 2.5851-5.2969 4.0312-1.7274 1.4462-3.4098 2.9879-5.0625 4.6406-1.6527 1.6528-3.1945 3.382-4.6406 5.1094-1.4462 1.7274-2.7917 3.4948-4.0312 5.2969s-2.3889 3.6077-3.4219 5.4844c-1.033 1.8767-1.9861 3.8142-2.8125 5.7656s-1.5365 3.9271-2.1562 5.9531c-0.61978 2.026-1.1337 4.0868-1.5469 6.1875-0.41319 2.1007-0.73091 4.2465-0.9375 6.4219s-0.28125 4.4062-0.28125 6.6562v506.62c0 2.25 0.07466 4.4809 0.28125 6.6562 0.20659 2.1753 0.52431 4.3212 0.9375 6.4219 0.41319 2.1007 0.92709 4.1615 1.5469 6.1875 0.61978 2.026 1.3299 4.0018 2.1562 5.9531s1.7795 3.8889 2.8125 5.7656c1.033 1.8767 2.1823 3.6823 3.4219 5.4844s2.5851 3.5695 4.0312 5.2969c1.4462 1.7274 2.9879 3.4566 4.6406 5.1094 1.6528 1.6528 3.3351 3.1945 5.0625 4.6406 1.7274 1.4462 3.4948 2.7917 5.2969 4.0312 1.8021 1.2396 3.6545 2.342 5.5312 3.375 1.8767 1.033 3.7674 1.9861 5.7188 2.8125 1.9514 0.82637 3.9271 1.5365 5.9531 2.1562 2.026 0.61978 4.0868 1.1337 6.1875 1.5469s4.2465 0.73091 6.4219 0.9375c2.1754 0.20659 4.4063 0.32813 6.6562 0.32813h666.66c2.25 0 4.4809-0.12154 6.6562-0.32813 2.1754-0.20659 4.3212-0.52431 6.4219-0.9375s4.1615-0.92709 6.1875-1.5469c2.026-0.61979 4.0018-1.3299 5.9531-2.1562 1.9514-0.82638 3.842-1.7795 5.7188-2.8125 1.8767-1.033 3.7292-2.1354 5.5312-3.375 1.8021-1.2396 3.5695-2.5851 5.2969-4.0312 1.7274-1.4462 3.4098-2.9879 5.0625-4.6406s3.1945-3.382 4.6406-5.1094c1.4462-1.7274 2.7917-3.4948 4.0312-5.2969 1.2396-1.8021 2.3889-3.6077 3.4219-5.4844 1.033-1.8767 1.9861-3.8143 2.8125-5.7656s1.5365-3.9271 2.1562-5.9531c0.61978-2.026 1.1337-4.0868 1.5469-6.1875 0.41319-2.1007 0.73091-4.2465 0.9375-6.4219 0.2066-2.1753 0.28125-4.4062 0.28125-6.6562v-381.98c-5 3.889-10.094 7.5209-15.328 10.922s-10.611 6.5558-16.078 9.4688c-2.7337 1.4565-5.5076 2.8303-8.3438 4.125-2.8362 1.2947-5.7332 2.5234-8.6719 3.6562s-5.912 2.1696-8.9531 3.1406c-3.0412 0.97099-6.1376 1.8627-9.2812 2.6719v348h-666.66v-443.3l333.33 215.3 200.34-129.33c-4.6667-2.0343-9.2622-4.2119-13.734-6.6094-4.4722-2.3975-8.8473-5.0206-13.125-7.7812-4.2777-2.7607-8.394-5.6631-12.422-8.7656-4.0278-3.1025-7.9408-6.3994-11.719-9.8438l-149.34 95.672-330-211.97h418.69c-0.889-5.5553-1.5417-11.132-1.875-16.688s-0.36296-11.132-0.14063-16.688c0.22234-5.5553 0.64584-11.085 1.3125-16.641 0.66667-5.5555 1.5609-11.132 2.6719-16.688z"/>
 <path d="m760.08-873.33c-3.9378 0-7.788 0.17187-11.578 0.51562s-7.5137 0.85938-11.156 1.5469c-3.6425 0.68749-7.2395 1.5469-10.734 2.5781-3.4949 1.0312-6.8715 2.2344-10.219 3.6094-3.3472 1.375-6.6442 2.9219-9.8438 4.6406-3.1995 1.7188-6.3231 3.6094-9.375 5.6719-3.0519 2.0625-6.0489 4.2969-8.9531 6.7031s-5.7278 4.9844-8.4844 7.7344c-2.7565 2.75-5.3224 5.5859-7.7344 8.4844s-4.6826 5.8593-6.75 8.9062-3.9491 6.1795-5.6719 9.375c-1.7228 3.1955-3.2624 6.4529-4.6406 9.7969-1.3782 3.344-2.5757 6.7732-3.6094 10.266-1.0337 3.4924-1.889 7.0466-2.5781 10.688s-1.2023 7.3668-1.5469 11.156c-0.34456 3.7894-0.51562 7.6402-0.51562 11.578 0 3.9378 0.17188 7.788 0.51562 11.578 0.34375 3.7902 0.85938 7.5137 1.5469 11.156s1.5469 7.2395 2.5781 10.734c1.0312 3.4949 2.2344 6.8715 3.6094 10.219 1.375 3.3472 2.9219 6.6442 4.6406 9.8438 1.7188 3.1995 3.6094 6.3231 5.6719 9.375 2.0625 3.0519 4.2969 6.0489 6.7031 8.9531 2.4062 2.9042 4.9844 5.7278 7.7344 8.4844 2.75 2.7565 5.539 5.3224 8.4375 7.7344s5.9062 4.6826 8.9531 6.75c3.047 2.0674 6.1327 3.9491 9.3281 5.6719 3.1955 1.7228 6.4998 3.2624 9.8438 4.6406s6.7263 2.5757 10.219 3.6094c3.4924 1.0337 7.0934 1.889 10.734 2.5781 3.6409 0.68912 7.32 1.2023 11.109 1.5469 3.7894 0.34456 7.6871 0.51562 11.625 0.51562 3.9378 0 7.788-0.17188 11.578-0.51562 3.7902-0.34375 7.5137-0.85938 11.156-1.5469 3.6425-0.6875 7.1926-1.5469 10.688-2.5781 3.4949-1.0312 6.9184-2.2344 10.266-3.6094s6.6442-2.9219 9.8438-4.6406c3.1996-1.7188 6.3231-3.6094 9.375-5.6719s6.002-4.2969 8.9062-6.7031c2.9042-2.4062 5.7278-4.9844 8.4844-7.7344 2.7565-2.75 5.3693-5.539 7.7812-8.4375 2.4119-2.8985 4.6358-5.9062 6.7031-8.9531 2.0674-3.047 3.9491-6.1327 5.6719-9.3281 1.7228-3.1955 3.3093-6.4998 4.6875-9.8438 1.3782-3.344 2.5757-6.7263 3.6094-10.219s1.889-7.0934 2.5781-10.734c0.68913-3.6409 1.2023-7.32 1.5469-11.109s0.51562-7.6871 0.51562-11.625c0-3.9378-0.17187-7.788-0.51562-11.578-0.34375-3.7902-0.85938-7.5137-1.5469-11.156-0.68749-3.6425-1.5469-7.1926-2.5781-10.688-1.0312-3.4949-2.2344-6.9184-3.6094-10.266-1.375-3.3472-2.9219-6.6442-4.6406-9.8438s-3.6094-6.3231-5.6719-9.375c-2.0625-3.0519-4.2969-6.002-6.7031-8.9062s-4.9844-5.7278-7.7344-8.4844c-2.75-2.7565-5.5859-5.3693-8.4844-7.7812-2.8985-2.4119-5.8593-4.6358-8.9062-6.7031s-6.1795-3.9491-9.375-5.6719c-3.1955-1.7228-6.4529-3.3093-9.7969-4.6875-3.344-1.3782-6.7732-2.5757-10.266-3.6094s-7.0466-1.889-10.688-2.5781c-3.6409-0.68913-7.3668-1.2023-11.156-1.5469s-7.6402-0.51562-11.578-0.51562z" fill="#2da44e"/>
</svg>
