<?xml version="1.0" encoding="UTF-8"?>
<svg width="40" height="40" version="1.1" viewBox="0 -960 960 960" xmlns="http://www.w3.org/2000/svg">
 <path d="m480-120q-151 0-255.5-46.5t-104.5-113.5v-400q0-66 105.5-113t254.5-47q149 0 254.5 47t105.5 113v400q0 67-104.5 113.5t-255.5 46.5zm0-485q87 0 177.33-26.167 90.334-26.167 111.33-57.833-21.667-31-111.83-57.667-90.166-26.667-176.83-26.667-89 0-177.5 25.834-88.5 25.833-111.83 58.5 23.334 33.333 111.17 58.667 87.834 25.333 178.17 25.333zm-0.667 209q42 0 83-4.333 41-4.334 78.5-12.834 37.501-8.5 71.334-20.833t61.167-27.667v-143.33q-28 15.334-61.834 27.667-33.833 12.333-71.667 20.833-37.833 8.5-78.166 13.167-40.334 4.667-82.334 4.667t-83.333-4.667q-41.333-4.667-78.833-13.167-37.501-8.5-70.834-20.833t-59.667-27.667v143.33q26.334 15.334 59.334 27.667t70.5 20.833 78.833 12.834q41.334 4.333 84 4.333zm0.667 209.33q47.333 0 97.167-8 49.833-8 91.5-21.167t70.333-29.333q28.667-16.167 34.334-33.167v-116q-27.334 15.334-61.167 27.334t-71.334 20.5q-37.5 8.5-78.166 12.833-40.667 4.333-83.334 4.333-42.666 0-84-4.333-41.333-4.333-78.833-12.833t-70.5-20.5q-33-12-59.334-27.334v117q5 16.333 33.167 32.667 28.167 16.333 70.167 29.166 42 12.834 92 20.834t98 8z"/>
</svg>
