<?xml version="1.0" encoding="UTF-8"?>
<svg width="40" height="40" version="1.1" viewBox="0 -960 960 960" xmlns="http://www.w3.org/2000/svg">
 <path d="m38.667-160v-100q0-34.666 17.833-63.166t48.833-42.834q69.334-31.666 129.67-46.166t123.67-14.5q63.333 0 123.33 14.5t129.33 46.166q31 14.334 49.167 42.834t18.167 63.166v100h-640zm706.67 0v-102.67q0-56.667-29.5-97.167t-79.167-66.833q63 7.333 118.67 22.5 55.667 15.166 94 35.5 34 19.333 53 46.166 19 26.834 19 59.834v102.67h-176zm-386.67-320.67q-66 0-109.67-43.666-43.667-43.667-43.667-109.67t43.667-109.67q43.667-43.667 109.67-43.667t109.67 43.667q43.667 43.666 43.667 109.67t-43.667 109.67q-43.666 43.666-109.67 43.666zm373.33-153.33q0 66-43.666 109.67-43.667 43.666-109.67 43.666-11 0-25.667-1.833-14.666-1.833-25.666-5.5 25-27.333 38.166-64.667 13.167-37.333 13.167-81.333t-13.167-80q-13.166-36-38.166-66 12-3.666 25.666-5.5 13.667-1.833 25.667-1.833 66 0 109.67 43.667 43.666 43.666 43.666 109.67zm-626.67 407.33h506.67v-33.334q0-14.333-8.166-27.333-8.167-13-20.501-18.667-66-30.333-117-42.167-51-11.833-107.67-11.833-56.667 0-108 11.833-51.334 11.834-117.33 42.167-12.333 5.667-20.167 18.667-7.833 13-7.833 27.333v33.334zm253.33-320.67q37 0 61.833-24.833 24.833-24.834 24.833-61.834t-24.833-61.833q-24.833-24.834-61.833-24.834t-61.834 24.834q-24.833 24.833-24.833 61.833t24.833 61.834q24.834 24.833 61.834 24.833z"/>
</svg>
