<?xml version="1.0" encoding="UTF-8"?>
<svg width="40" height="40" version="1.1" viewBox="0 -960 960 960" xmlns="http://www.w3.org/2000/svg">
 <g>
  <path d="m359.91-426.66c-10.351 0-20.665 0.30038-30.938 0.89063-10.273 0.59024-20.509 1.4445-30.703 2.625-10.194 1.1805-20.353 2.6824-30.469 4.4531-10.116 1.7708-20.197 3.8265-30.234 6.1875-10.037 2.3612-20.277 5.085-30.75 8.2031-10.473 3.1181-21.202 6.625-32.109 10.5-10.908 3.875-22.032 8.1181-33.375 12.75-11.343 4.6319-22.863 9.658-34.641 15.047-2.6389 1.1945-5.243 2.4548-7.7344 3.7969-2.4913 1.3421-4.875 2.776-7.2188 4.2656s-4.6476 3.0503-6.8438 4.6875-4.2795 3.3246-6.3281 5.1094c-2.0486 1.7847-4.0521 3.6458-5.9531 5.5781s-3.7309 3.967-5.4844 6.0469c-1.7535 2.0799-3.4097 4.2413-5.0156 6.4688-1.6059 2.2274-3.1354 4.5156-4.5938 6.8906s-2.849 4.7795-4.125 7.2188-2.4688 4.9028-3.5625 7.4062-2.0885 5.0261-3 7.5938-1.7083 5.1962-2.4375 7.8281c-0.72917 2.6319-1.375 5.2726-1.9219 7.9688-0.54687 2.6961-0.99479 5.4428-1.3594 8.2031s-0.66146 5.566-0.84375 8.3906c-0.18229 2.8246-0.28125 5.6424-0.28125 8.5312v100.03h640.03v-100.03c0-2.8888-0.0955-5.7101-0.28125-8.5312-0.18576-2.8211-0.47222-5.6372-0.84375-8.3906-0.37152-2.7534-0.84896-5.4705-1.4062-8.1562-0.55728-2.6857-1.1788-5.3507-1.9219-7.9688s-1.6024-5.184-2.5312-7.7344c-0.9288-2.5504-1.9323-5.0642-3.0469-7.5469-1.1146-2.4826-2.3559-4.9444-3.6562-7.3594-1.3003-2.415-2.6858-4.7778-4.1719-7.125-1.4862-2.3472-3.0104-4.6337-4.6406-6.8438-1.6302-2.2101-3.335-4.3489-5.1094-6.4219s-3.6597-4.0642-5.5781-6c-1.9184-1.9358-3.8906-3.8264-5.9531-5.625s-4.2153-3.4948-6.4219-5.1562c-2.2066-1.6615-4.4462-3.2569-6.7969-4.7812s-4.7709-3.0191-7.2656-4.4062c-2.4947-1.3872-5.0955-2.6875-7.7344-3.9375-11.778-5.3888-23.307-10.415-34.641-15.047-11.333-4.6319-22.439-8.875-33.328-12.75-10.889-3.875-21.571-7.3819-32.016-10.5-10.444-3.1181-20.656-5.842-30.656-8.2031-10-2.361-20.053-4.4168-30.141-6.1875s-20.246-3.2726-30.422-4.4531c-10.176-1.1805-20.393-2.0348-30.656-2.625-10.263-0.59025-20.539-0.89063-30.891-0.89063zm0.09375 66.656c9.5555 0 18.974 0.22396 28.266 0.70313 9.2916 0.47916 18.441 1.1979 27.469 2.1562 9.0278 0.95833 17.955 2.1719 26.719 3.6094 8.7639 1.4375 17.375 3.099 25.875 5.0156 8.5 1.9167 17.293 4.2552 26.391 6.9844s18.524 5.8802 28.219 9.4219c9.6945 3.5417 19.661 7.4583 29.953 11.812 10.292 4.3542 20.892 9.1302 31.781 14.297 2.1667 1.0555 4.2361 2.2431 6.1875 3.5625 1.9514 1.3194 3.7952 2.776 5.5312 4.3594 1.7361 1.5833 3.3542 3.309 4.875 5.1562 1.5208 1.8472 2.9133 3.7951 4.2188 5.9062 1.3057 2.1112 2.4426 4.2882 3.4219 6.4688 0.97925 2.1806 1.8315 4.3594 2.4844 6.6094 0.65284 2.25 1.1267 4.5712 1.4531 6.8906 0.32642 2.3194 0.46875 4.6424 0.46875 7.0312v33.328h-506.62v-33.328c0-2.3888 0.15625-4.7118 0.46875-7.0312 0.3125-2.3194 0.78125-4.6406 1.4062-6.8906s1.4062-4.4288 2.3438-6.6094c0.9375-2.1806 2.0312-4.3576 3.2812-6.4688 1.25-2.1112 2.5989-4.059 4.0781-5.9062 1.4792-1.8472 3.0728-3.5729 4.7812-5.1562 1.7084-1.5833 3.5468-3.04 5.4844-4.3594s3.9738-2.507 6.1406-3.5625c10.889-5.1667 21.476-9.9427 31.781-14.297 10.305-4.3542 20.325-8.2708 30.047-11.812 9.7222-3.5417 19.174-6.6927 28.312-9.4219s17.976-5.0677 26.531-6.9844c8.5557-1.9167 17.21-3.5781 26.016-5.0156 8.8056-1.4375 17.757-2.651 26.812-3.6094 9.0556-0.95834 18.21-1.6771 27.516-2.1562 9.3055-0.47917 18.757-0.70313 28.312-0.70313z"/>
  <path d="m726.66-720v126.66h-126.66v66.656h126.66v126.7h66.656v-126.7h126.7v-66.656h-126.7v-126.66z" fill="#2da44e"/>
  <path d="m360-787.31c-5.5 0-10.905 0.20139-16.172 0.65625-5.2674 0.45486-10.387 1.1528-15.422 2.0625s-9.9635 2.0573-14.766 3.4219c-4.8021 1.3646-9.493 2.9149-14.062 4.7344-4.5694 1.8195-9.0226 3.8663-13.359 6.1406-4.3368 2.2743-8.5521 4.8177-12.656 7.5469s-8.0816 5.6753-11.953 8.8594c-3.8715 3.184-7.658 6.5798-11.297 10.219-3.6388 3.6388-7.0348 7.3785-10.219 11.25-3.184 3.8715-6.1302 7.8959-8.8594 12-2.7291 4.1041-5.2257 8.3195-7.5 12.656-2.2743 4.3368-4.3212 8.79-6.1406 13.359s-3.4167 9.2604-4.7812 14.062-2.5122 9.684-3.4219 14.719c-0.9097 5.0347-1.6076 10.201-2.0625 15.469-0.45485 5.2674-0.65625 10.672-0.65625 16.172 0 5.5 0.2014 10.858 0.65625 16.125 0.45486 5.2674 1.1528 10.434 2.0625 15.469 0.90971 5.0347 2.0573 9.9635 3.4219 14.766s2.9618 9.493 4.7812 14.062 3.8664 9.0226 6.1406 13.359c2.2743 4.3368 4.7709 8.5521 7.5 12.656 2.7291 4.1042 5.6754 8.0816 8.8594 11.953s6.5799 7.6111 10.219 11.25c3.6389 3.6388 7.4253 7.0816 11.297 10.266 3.8716 3.184 7.849 6.1302 11.953 8.8594s8.3194 5.2257 12.656 7.5 8.7899 4.3212 13.359 6.1406c4.5695 1.8194 9.2604 3.4167 14.062 4.7812 4.8021 1.3646 9.7309 2.5122 14.766 3.4219s10.155 1.5608 15.422 2.0156c5.2674 0.45485 10.672 0.70312 16.172 0.70312s10.905-0.24827 16.172-0.70312c5.2674-0.45486 10.387-1.1059 15.422-2.0156s9.9635-2.0573 14.766-3.4219c4.8021-1.3646 9.493-2.9618 14.062-4.7812 4.5695-1.8194 9.0226-3.8664 13.359-6.1406s8.5521-4.7709 12.656-7.5 8.0816-5.6754 11.953-8.8594c3.8716-3.184 7.658-6.6268 11.297-10.266 3.6388-3.6389 7.0348-7.3784 10.219-11.25s6.1302-7.8489 8.8594-11.953c2.7291-4.1042 5.2257-8.3194 7.5-12.656 2.2743-4.3368 4.3212-8.7899 6.1406-13.359s3.4167-9.2604 4.7812-14.062 2.5122-9.7309 3.4219-14.766c0.90971-5.0347 1.6076-10.201 2.0625-15.469 0.45486-5.2674 0.65625-10.625 0.65625-16.125 0-5.5-0.20139-10.905-0.65625-16.172-0.45485-5.2674-1.1528-10.434-2.0625-15.469-0.9097-5.0347-2.0573-9.9167-3.4219-14.719s-2.9618-9.4931-4.7812-14.062-3.8664-9.0226-6.1406-13.359c-2.2743-4.3368-4.7709-8.5521-7.5-12.656-2.7291-4.1041-5.6754-8.1285-8.8594-12-3.184-3.8715-6.5799-7.6112-10.219-11.25-3.6389-3.6389-7.4253-7.0347-11.297-10.219-3.8715-3.184-7.8489-6.1302-11.953-8.8594s-8.3194-5.2726-12.656-7.5469c-4.3368-2.2743-8.7899-4.3212-13.359-6.1406-4.5694-1.8195-9.2604-3.3698-14.062-4.7344-4.8021-1.3646-9.7309-2.5122-14.766-3.4219s-10.155-1.6076-15.422-2.0625c-5.2674-0.45486-10.672-0.65625-16.172-0.65625zm0 66.656c3.0833 0 6.0903 0.11631 9.0469 0.375 2.9566 0.25869 5.842 0.6545 8.6719 1.1719 2.8298 0.51737 5.5938 1.1458 8.2969 1.9219 2.7031 0.77606 5.3455 1.684 7.9219 2.7188s5.0972 2.2222 7.5469 3.5156c2.4496 1.2934 4.849 2.7135 7.1719 4.2656s4.6007 3.2048 6.7969 5.0156c2.1962 1.8108 4.3056 3.7899 6.375 5.8594 2.0695 2.0694 4.0017 4.1788 5.8125 6.375 1.8108 2.1962 3.5104 4.474 5.0625 6.7969 1.5521 2.3229 2.9722 4.6754 4.2656 7.125 1.2934 2.4496 2.434 4.9705 3.4688 7.5469s1.9427 5.2188 2.7188 7.9219c0.77606 2.7031 1.4514 5.467 1.9688 8.2969s0.91319 5.7153 1.1719 8.6719c0.25869 2.9566 0.375 6.0104 0.375 9.0938 0 3.0833-0.11631 6.0903-0.375 9.0469-0.25868 2.9566-0.6545 5.842-1.1719 8.6719-0.51737 2.8299-1.1927 5.5937-1.9688 8.2969s-1.684 5.3455-2.7188 7.9219c-1.0348 2.5764-2.1753 5.0972-3.4688 7.5469s-2.7135 4.8489-4.2656 7.1719c-1.5521 2.323-3.2517 4.5538-5.0625 6.75-1.8108 2.1962-3.743 4.3524-5.8125 6.4219-2.0694 2.0694-4.1788 4.0018-6.375 5.8125-2.1962 1.8107-4.474 3.5104-6.7969 5.0625s-4.7222 2.9722-7.1719 4.2656c-2.4496 1.2934-4.9705 2.434-7.5469 3.4688-2.5764 1.0347-5.2188 1.9427-7.9219 2.7188-2.7031 0.77603-5.467 1.4045-8.2969 1.9219s-5.7153 0.9132-8.6719 1.1719c-2.9566 0.25867-5.9635 0.42187-9.0469 0.42187s-6.0903-0.1632-9.0469-0.42187c-2.9566-0.25868-5.842-0.65453-8.6719-1.1719s-5.5938-1.1458-8.2969-1.9219c-2.7031-0.77604-5.3455-1.684-7.9219-2.7188-2.5764-1.0347-5.0972-2.1754-7.5469-3.4688-2.4496-1.2934-4.849-2.7136-7.1719-4.2656s-4.6007-3.2518-6.7969-5.0625c-2.1962-1.8107-4.3056-3.7431-6.375-5.8125-2.0695-2.0695-4.0017-4.2256-5.8125-6.4219-1.8108-2.1962-3.5104-4.427-5.0625-6.75-1.5521-2.323-2.9722-4.7222-4.2656-7.1719s-2.434-4.9705-3.4688-7.5469c-1.0348-2.5764-1.9427-5.2187-2.7188-7.9219s-1.4514-5.467-1.9688-8.2969c-0.51737-2.8299-0.91319-5.7153-1.1719-8.6719-0.25868-2.9566-0.375-5.9635-0.375-9.0469 0-3.0833 0.11632-6.1372 0.375-9.0938 0.25869-2.9566 0.65451-5.842 1.1719-8.6719s1.1927-5.5938 1.9688-8.2969c0.77606-2.7031 1.684-5.3455 2.7188-7.9219s2.1753-5.0972 3.4688-7.5469c1.2934-2.4496 2.7135-4.8021 4.2656-7.125 1.5521-2.3229 3.2517-4.6007 5.0625-6.7969 1.8108-2.1962 3.743-4.3056 5.8125-6.375 2.0694-2.0695 4.1788-4.0486 6.375-5.8594 2.1962-1.8108 4.474-3.4635 6.7969-5.0156s4.7222-2.9722 7.1719-4.2656c2.4496-1.2934 4.9705-2.4809 7.5469-3.5156s5.2188-1.9427 7.9219-2.7188c2.7031-0.77606 5.467-1.4045 8.2969-1.9219 2.8298-0.51738 5.7153-0.91319 8.6719-1.1719 2.9566-0.25869 5.9636-0.375 9.0469-0.375z"/>
 </g>
</svg>
