<?xml version="1.0" encoding="UTF-8"?>
<svg width="40" height="40" version="1.1" viewBox="0 -960 960 960" xmlns="http://www.w3.org/2000/svg">
 <path d="m354.67-120h-168q-27 0-46.833-19.833t-19.833-46.833v-168q45.333-3.333 78.333-33.166 33-29.834 33-74.167t-33-74.167q-33-29.833-78.333-33.166v-168q0-27 19.833-46.833t46.833-19.833h171.33q7.333-40.667 36-68.333 28.667-27.667 69.333-27.667 40.667 0 69.334 27.667 28.666 27.666 36 68.333h168.67q27 0 46.833 19.833t19.833 46.833v168.67q40.667 7.334 67.333 37.334 26.667 30 26.667 70.666 0 40.667-26.667 68.334-26.666 27.666-67.333 35v170.67q0 27-19.833 46.833t-46.833 19.833h-168q-3.333-48.667-34.166-80-30.834-31.333-73.167-31.333t-73.167 31.333q-30.833 31.333-34.166 80zm-168-66.666h115q24.667-62.667 72.259-87 47.591-24.333 87.999-24.333t88.075 24.333q47.666 24.333 72.333 87h115v-236.67h56.666q16 0 26.667-10.667 10.667-10.666 10.667-26.667 0-16-10.667-26.667t-26.667-10.667h-56.666v-239.33h-236.67v-58.666q0-16-10.667-26.667-10.666-10.667-26.667-10.667-16 0-26.667 10.667-10.666 10.667-10.666 26.667v58.666h-239.33v116q50.1 18.544 80.717 62.124 30.616 43.579 30.616 97.357 0 52.852-30.666 96.518-30.667 43.667-80.667 62.667v116z"/>
</svg>
