<?xml version="1.0" encoding="UTF-8"?>
<svg width="40" height="40" version="1.1" viewBox="0 -960 960 960" xmlns="http://www.w3.org/2000/svg">
 <path d="m480-80q-83.333 0-156.33-31.5t-127.17-85.667q-54.167-54.166-85.333-127.5-31.167-73.333-31.167-156.67 0-83.667 31.167-156.17 31.166-72.5 85.333-126.67 54.167-54.166 127.17-85 73-30.833 156.33-30.833 83.667 0 156.5 30.833 72.833 30.834 127 85 54.167 54.167 85.333 126.67 31.167 72.5 31.167 156.17 0 83.333-31.167 156.67-31.166 73.334-85.333 127.5-54.167 54.167-127 85.667t-156.5 31.5zm0-66q32-36 54-80t36-101.33h-179.33q13.334 54.667 35.334 99.668 22 45 54 81.666zm-91.333-13.333q-22.667-36.333-39.167-77.5t-27.5-90.501h-139.33q35 64.001 82.834 103.33 47.833 39.334 123.17 64.667zm183.33-0.666q66.667-21.334 119.5-64.334 52.834-43 85.834-103h-138.67q-11.667 48.667-27.834 89.834t-38.833 77.501zm-414-234h151.33q-3-24.667-3.833-45.5t-0.833-41.833q0-23.667 1.166-43.167 1.167-19.5 4.167-42.167h-152q-6.334 22.667-8.834 41.834-2.5 19.166-2.5 43.5 0 24.333 2.5 44.5 2.5 20.166 8.834 42.833zm219.33 0h206q3.666-27.333 4.833-46.833t1.167-40.5q0-20.334-1.167-39.167t-4.833-46.167h-206q-3.667 27.334-4.833 46.167-1.167 18.833-1.167 39.167 0 21 1.167 40.5 1.166 19.5 4.833 46.833zm272.67 0h152q6.334-22.667 8.834-42.833 2.5-20.167 2.5-44.5 0-24.334-2.5-43.5-2.5-19.167-8.834-41.834h-151.33q3 30 4.166 48.834 1.167 18.833 1.167 36.5 0 21.666-1.5 41.166t-4.5 46.167zm-12-239.33h139.33q-31.667-62.667-84.5-105.67-52.834-43.001-121.5-61.667 22.667 35.667 38.834 76.167 16.166 40.5 27.833 91.167zm-247.33 0h180q-11.333-50-35-96-23.667-46.001-55.667-83.334-30 30-51 72.333-21 42.334-38.334 107zm-208 0h140q10.333-48.667 26.166-88.834 15.834-40.167 39.167-77.834-68.667 18.667-120.5 61.001-51.834 42.333-84.834 105.67z"/>
</svg>
