<?xml version="1.0" encoding="UTF-8"?>
<svg width="40" height="40" version="1.1" viewBox="0 -960 960 960" xmlns="http://www.w3.org/2000/svg">
 <path d="M764-120 523.666-360.334l66-65.999L830-185.999 764-120Zm-571.334 0-65.999-65.999L412-471.333l-94-94.001-24.667 24.667L247-587v84l-25.333 25.333L100-599.334l25.333-25.333H210l-48.667-48.667L296-808q18-18 39-25t45-7q24 0 45 8.667 21 8.666 38.999 26.666l-102 102.001L410.666-654l-25.333 25.333 92 92.001L588.667-648q-6.667-12.333-10.5-27.667-3.833-15.333-3.833-32 0-55 39.166-94.166Q652.667-841 707.667-841q15 0 26.5 3T755-829.667L665.334-740l74 74L829-755.667q5.667 10 8.833 22.167Q841-721.333 841-706.333q0 54.999-39.167 94.166Q762.667-573 707.667-573q-16 0-28.667-2.334-12.667-2.333-23.667-7.333L192.666-120Z"/>
</svg>
