<?xml version="1.0" encoding="UTF-8"?>
<svg width="40" height="40" version="1.1" viewBox="0 -960 960 960" xmlns="http://www.w3.org/2000/svg">
 <path d="M388-159.999q-23.333-37.667-39.167-77.834Q333-278 322.667-326.667H182.666q33 63.334 84.834 105.667 51.833 42.334 120.5 61.001ZM158-393.333h152Q307-416 305.833-435.5q-1.166-19.5-1.166-43.167 0-21 .833-41.833t3.833-45.5H158q-6.334 22.667-8.834 42.833-2.5 20.167-2.5 44.5 0 24.334 2.5 43.5 2.5 19.167 8.834 41.834Zm24.666-239.333H322q11-49.334 27.5-90.501t39.167-77.5Q313.333-775.334 265.5-736q-47.834 39.333-82.834 103.334Zm208 0H570Q556-690 534-734t-54-80q-32 36.666-54 81.666-22 45.001-35.334 99.668Zm248.001 0h138.667q-33-60.001-85.834-103.001-52.833-43-119.5-64.334 22.666 36.334 38.833 77.501 16.167 41.167 27.834 89.834ZM480-80q-83.333 0-156.333-30.833-73-30.834-127.167-85Q142.333-250 111.167-322.667 80-395.333 80-478.667q0-83.666 31.167-156.833 31.166-73.167 85.333-127.333Q250.667-817 323.667-848.5T480-880q83.667 0 156.5 31.5t127 85.667q54.167 54.166 85.333 127.333Q880-562.333 880-478.667q0 14.667-.833 29.334-.834 14.667-3.167 29.334h-68.333q3.333-14.667 4.5-28.167 1.167-13.5 1.167-30.501 0-24.333-2.5-44.5-2.5-20.166-8.834-42.833H650q3 26.667 4.5 46.167t1.5 41.166q0 13-.333 25.834-.334 12.833-2 32.834h-67.333q1.666-17.334 2.333-30.501.667-13.167.667-28.167 0-21-1.167-40.5T583.334-566H377.333q-3.667 27.333-4.833 46.833-1.167 19.5-1.167 40.5 0 20.334 1.167 39.167 1.166 18.833 4.833 46.167h162.668v66.666H390.666Q408-262 429-219.666q21 42.333 51 72.333 17.667-20 32.667-43.5t27.334-48.501v154.667q-14.667 2.334-29.501 3.5Q495.667-80 480-80Zm318-34.334L673.333-239v98.333h-66.666v-212.666h212.666v66.666H720L844.666-162 798-114.334Z"/>
</svg>
