<?xml version="1.0" encoding="UTF-8"?>
<svg width="40" height="40" version="1.1" viewBox="0 -960 960 960" xmlns="http://www.w3.org/2000/svg">
 <path d="m293.27-533.33q-55.266 0-94.266-39.067t-39-94.333 39.067-94.266q39.068-39 94.333-39 55.266 0 94.266 39.067 39 39.068 39 94.333 0 55.266-39.067 94.266t-94.333 39zm-0.011-66.666q27.745 0 47.245-19.422 19.5-19.421 19.5-47.166 0-27.746-19.422-47.246-19.421-19.5-47.166-19.5-27.746 0-47.246 19.422t-19.5 47.167 19.422 47.245q19.422 19.5 47.167 19.5zm373.34 440q-55.266 0-94.266-39.067-39-39.068-39-94.333 0-55.266 39.067-94.266t94.333-39 94.266 39.067q39 39.067 39 94.333t-39.067 94.266q-39.068 39-94.333 39zm-0.012-66.666q27.746 0 47.246-19.422t19.5-47.167-19.422-47.245q-19.422-19.5-47.167-19.5t-47.245 19.422q-19.5 19.421-19.5 47.166 0 27.746 19.422 47.246 19.421 19.5 47.166 19.5zm-459.92 66.666-46.666-46.666 593.33-593.33 46.666 46.666-593.33 593.33z" fill="#bf8700"/>
</svg>
