<?xml version="1.0" encoding="UTF-8"?>
<svg width="40" height="40" version="1.1" viewBox="0 -960 960 960" xmlns="http://www.w3.org/2000/svg">
 <path d="m436.67-344 227.33-227.33-47-46.333-178.33 178.33-95.334-95.334-48.333 48.333 141.67 142.33zm43.333 263.33q-139.67-35-229.83-161.5-90.167-126.5-90.167-278.5v-240l320-120 320 120v240q0 152-90.167 278.5-90.166 126.5-229.83 161.5zm0-69.333q111.33-36.333 182.33-139.67 71-103.33 71-231v-193.67l-253.33-95.333-253.33 95.333v193.67q0 127.67 71 231 71 103.33 182.33 139.67z" fill="#2da44e"/>
</svg>
