<?xml version="1.0" encoding="UTF-8"?>
<svg width="40" height="40" version="1.1" viewBox="0 -960 960 960" xmlns="http://www.w3.org/2000/svg">
 <path d="m480-329.33q15.3 0 25.65-10.35t10.35-25.649q0-15.3-10.35-25.65t-25.65-10.35-25.65 10.35-10.35 25.65q0 15.299 10.35 25.649t25.65 10.35zm-33.333-142.67h66.666v-204.67h-66.666v204.67zm33.333 391.33q-139.67-35-229.83-161.5-90.167-126.5-90.167-278.5v-240l320-120 320 120v240q0 152-90.167 278.5-90.166 126.5-229.83 161.5zm0-69.333q111.33-36.333 182.33-139.67 71-103.33 71-231v-193.67l-253.33-95.333-253.33 95.333v193.67q0 127.67 71 231 71 103.33 182.33 139.67z" fill="#bf8700"/>
</svg>
