<?xml version="1.0" encoding="UTF-8"?>
<svg width="40" height="40" version="1.1" viewBox="0 -960 960 960" xmlns="http://www.w3.org/2000/svg">
 <path d="m755.34-676.69-335.34 220.69c-2.4167 1.6111-4.7101 3.3594-6.8438 5.2031-2.1337 1.8437-4.1024 3.783-5.9531 5.8594-1.8507 2.0764-3.5885 4.2535-5.1562 6.5625-1.5677 2.309-2.9809 4.7708-4.2656 7.3125s-2.4201 5.1944-3.4219 7.9688c-1.0018 2.7743-1.8593 5.6649-2.5781 8.6719-0.71879 3.007-1.2986 6.1354-1.7344 9.375-0.43581 3.2396-0.73779 6.559-0.89062 10.031-0.15275 3.4722-0.15627 6.8437-0.0469 10.125 0.1094 3.2813 0.33159 6.4722 0.70313 9.5625 0.37154 3.0903 0.86631 6.1007 1.5 9 0.63369 2.8993 1.401 5.6823 2.2969 8.3906 0.89584 2.7083 1.9358 5.3576 3.0938 7.875 1.158 2.5174 2.4705 4.9392 3.8906 7.2656 1.4201 2.3264 2.9584 4.5208 4.6406 6.6562 1.6823 2.1354 3.4931 4.1962 5.4375 6.1406 1.9445 1.9445 3.9583 3.7482 6.0938 5.4375 2.1355 1.6893 4.3767 3.2534 6.7031 4.6875s4.7482 2.7587 7.2656 3.9375c2.5174 1.1788 5.1198 2.217 7.8281 3.1406 2.7084 0.92362 5.5382 1.7222 8.4375 2.3906s5.9097 1.2274 9 1.6406c3.0903 0.41318 6.2344 0.68578 9.5156 0.84375 3.2813 0.15796 6.6996 0.19099 10.172 0.0937 3.4722-0.0972 6.7917-0.35588 10.031-0.75 3.2395-0.39413 6.3681-0.94963 9.375-1.6406s5.8976-1.4965 8.6719-2.4844c2.7743-0.98788 5.4271-2.1371 7.9688-3.4219 2.5417-1.2848 5.0035-2.7309 7.3125-4.3125 2.309-1.5816 4.4861-3.2778 6.5625-5.1562 2.0764-1.8785 4.0156-3.9184 5.8594-6.0938s3.592-4.5121 5.2031-6.9844z" style=""/>
 <path d="m755.34-676.69-218.67 338.02c-1.6112 2.4722-3.3593 4.809-5.2031 6.9844s-3.783 4.2152-5.8594 6.0938c-2.0764 1.8785-4.2535 3.5746-6.5625 5.1562-2.309 1.5816-4.7708 3.0278-7.3125 4.3125-2.5417 1.2848-5.1945 2.434-7.9688 3.4219-2.7743 0.98787-5.665 1.7934-8.6719 2.4844s-6.1355 1.2465-9.375 1.6406c-3.2395 0.39412-6.5591 0.65275-10.031 0.75-3.4722 0.0972-6.8906 0.0642-10.172-0.0937-3.2813-0.15797-6.4253-0.43057-9.5156-0.84375-3.0903-0.41319-6.1007-0.97222-9-1.6406s-5.7291-1.467-8.4375-2.3906c-2.7084-0.92363-5.3107-1.9618-7.8281-3.1406-2.5174-1.1788-4.9392-2.5034-7.2656-3.9375s-4.5677-2.9982-6.7031-4.6875c-2.1355-1.6893-4.1492-3.493-6.0938-5.4375-1.9444-1.9444-3.7552-4.0052-5.4375-6.1406-1.6823-2.1354-3.2205-4.3299-4.6406-6.6562-1.4201-2.3264-2.7326-4.7483-3.8906-7.2656-1.158-2.5174-2.1979-5.1667-3.0938-7.875-0.89583-2.7083-1.6632-5.4913-2.2969-8.3906-0.63369-2.8993-1.1285-5.9097-1.5-9-0.37154-3.0903-0.59373-6.2812-0.70313-9.5625-0.10939-3.2813-0.10587-6.6528 0.0469-10.125 0.15283-3.4722 0.45481-6.7916 0.89062-10.031 0.43582-3.2396 1.0156-6.368 1.7344-9.375 0.71879-3.007 1.5764-5.8976 2.5781-8.6719 1.0018-2.7743 2.1371-5.4271 3.4219-7.9688s2.6979-5.0035 4.2656-7.3125c1.5677-2.309 3.3056-4.4861 5.1562-6.5625 1.8507-2.0764 3.8194-4.0156 5.9531-5.8594 2.1337-1.8437 4.4271-3.592 6.8438-5.2031z" fill="#2da44e"/>
 <path d="m478.69-799.31c-6.8134 0-13.624 0.13716-20.344 0.46875s-13.389 0.83681-20.016 1.5c-6.6264 0.66319-13.201 1.4896-19.734 2.4844-6.5329 0.99478-13.014 2.1424-19.453 3.4688-6.4394 1.3264-12.826 2.842-19.172 4.5-6.346 1.658-12.638 3.4948-18.891 5.4844-6.2525 1.9896-12.45 4.1476-18.609 6.4688s-12.263 4.8004-18.328 7.4531c-6.0656 2.6527-12.035 5.408-17.906 8.2969-5.8716 2.8889-11.666 5.875-17.344 9-5.6776 3.125-11.251 6.3889-16.734 9.75s-10.882 6.8559-16.172 10.453c-5.2897 3.5972-10.467 7.276-15.562 11.109-5.0957 3.8333-10.098 7.7899-15 11.859-4.9018 4.0694-9.7297 8.257-14.438 12.562-4.7078 4.3055-9.3143 8.724-13.828 13.266-4.5139 4.5417-8.8941 9.1858-13.172 13.922-4.2778 4.7361-8.4271 9.6007-12.469 14.531-4.0417 4.9306-7.96 9.9219-11.766 15.047s-7.493 10.384-11.062 15.703c-3.5694 5.3194-7.026 10.705-10.359 16.219-3.3333 5.5139-6.559 11.12-9.6562 16.828-3.0972 5.7084-6.092 11.535-8.9531 17.438s-5.5781 11.903-8.2031 18c-2.625 6.0972-5.1094 12.269-7.4062 18.469-2.2969 6.1997-4.4063 12.448-6.375 18.75s-3.7969 12.627-5.4375 19.031-3.0938 12.852-4.4062 19.359c-1.3125 6.507-2.4844 13.078-3.4688 19.688-0.98437 6.6094-1.7813 13.257-2.4375 19.969-0.65625 6.7118-1.1719 13.483-1.5 20.297s-0.46875 13.708-0.46875 20.625c0 9.3333 0.26042 18.533 0.84375 27.609 0.58333 9.0764 1.4583 17.993 2.625 26.812 1.1667 8.8194 2.6563 17.547 4.4062 26.109s3.7604 16.96 6.0938 25.266c2.3333 8.3055 4.9479 16.563 7.7813 24.75 2.8333 8.1874 5.901 16.306 9.2344 24.375 3.3333 8.0694 6.901 16.096 10.734 24.047 3.8333 7.9514 7.9479 15.839 12.281 23.672 1.5 2.7778 3.1684 5.4166 5.0156 7.875 1.8472 2.4584 3.8525 4.7517 6.0469 6.8906 2.1944 2.1389 4.5834 4.0868 7.125 5.9062 2.5416 1.8195 5.2206 3.5156 8.1094 5.0156 2.889 1.5 5.835 2.8125 8.7656 3.9375 2.9306 1.125 5.8871 2.0625 8.8594 2.8125 2.9722 0.74999 5.9392 1.3125 8.9531 1.6875 3.0139 0.37499 6.0383 0.5625 9.0938 0.5625h564.7c3.3888 0 6.6632-0.14409 9.8438-0.42188s6.2622-0.71004 9.2344-1.2656c2.9722-0.55559 5.8143-1.2291 8.5781-2.0625 2.7638-0.83338 5.4132-1.842 7.9688-2.9531 2.5557-1.111 5.0503-2.4966 7.4531-4.2188 2.4028-1.7222 4.7344-3.7604 6.9844-6.0938s4.4185-4.9774 6.5156-7.9219c2.0972-2.9445 4.1026-6.1943 6.0469-9.75 4.5-7.611 8.7448-15.347 12.703-23.25 3.9583-7.9027 7.6458-15.946 11.062-24.141 3.4167-8.1944 6.5469-16.545 9.4219-25.031s5.4948-17.144 7.8281-25.922c1.1667-4.3889 2.2778-8.8108 3.2812-13.266 1.0035-4.4549 1.9253-8.9323 2.7656-13.453 0.84029-4.5208 1.5729-9.0538 2.25-13.641s1.2673-9.2222 1.7812-13.875c1.0278-9.3056 1.7343-18.743 2.1094-28.312 0.37509-9.5694 0.4183-19.276 0.14063-29.109-0.13892-4.75-0.34199-9.4705-0.65625-14.203s-0.72915-9.4879-1.2188-14.203c-0.4896-4.7153-1.0694-9.4115-1.7344-14.109-0.66494-4.6979-1.4097-9.382-2.25-14.062-0.84029-4.6805-1.75-9.3524-2.7656-14.016-1.0156-4.6632-2.1372-9.323-3.3281-13.969-1.191-4.6458-2.4774-9.2934-3.8438-13.922-1.3663-4.6284-2.8177-9.217-4.3594-13.828-1.5417-4.6111-3.158-9.2413-4.875-13.828s-3.5451-9.125-5.4375-13.688c-3.7848-9.125-7.8888-18.207-12.375-27.234-4.4862-9.0278-9.3437-18.022-14.531-26.953s-10.705-17.792-16.594-26.625l-42 60c2.25 3.1667 4.3837 6.3368 6.4688 9.5625s4.0799 6.4653 6 9.75 3.776 6.6406 5.5312 9.9844c1.7552 3.3438 3.4253 6.6753 5.0156 10.078 1.5903 3.4028 3.1215 6.8507 4.5469 10.312s2.7708 6.9792 4.0312 10.5 2.4201 7.0607 3.5156 10.641c1.0955 3.5799 2.1163 7.1892 3.0469 10.828 1.861 7.2778 3.4792 14.484 4.875 21.609 1.3958 7.125 2.5382 14.168 3.4688 21.141s1.6441 13.852 2.1094 20.672c0.46525 6.8194 0.70313 13.583 0.70313 20.25 0 7.5555-0.24308 15.118-0.75 22.688-0.50692 7.5694-1.283 15.151-2.2969 22.734-1.0138 7.5833-2.2761 15.137-3.7969 22.734-1.5208 7.5972-3.3161 15.217-5.3438 22.828-2.0278 7.6112-4.2517 15.029-6.7031 22.266-2.4514 7.2362-5.0938 14.279-7.9688 21.141-2.875 6.8612-5.9827 13.529-9.2812 20.016-3.2986 6.4862-6.8247 12.779-10.547 18.891h-570c-3.7222-6.3333-7.2014-12.762-10.5-19.359-3.2986-6.5972-6.4062-13.342-9.2812-20.203s-5.5173-13.875-7.9688-21-4.7222-14.361-6.75-21.75c-2.0278-7.3888-3.776-14.75-5.2969-22.125-1.5209-7.3754-2.783-14.763-3.7969-22.125s-1.7899-14.73-2.2969-22.078c-0.50695-7.3486-0.75-14.696-0.75-22.031 0-5.807 0.1224-11.551 0.375-17.25 0.25261-5.6992 0.61979-11.33 1.125-16.922 0.50522-5.5914 1.164-11.157 1.9219-16.641 0.75783-5.4837 1.6146-10.89 2.625-16.266s2.1588-10.716 3.4219-15.984c1.263-5.2681 2.6562-10.449 4.1719-15.609s3.1536-10.276 4.9219-15.328c1.7683-5.0525 3.651-10.055 5.6719-15 2.0209-4.9447 4.1953-9.835 6.4688-14.672s4.6458-9.6146 7.1719-14.344c2.5261-4.7291 5.19-9.3943 7.9688-14.016 2.7787-4.6213 5.6874-9.2208 8.7188-13.734 3.0313-4.5135 6.1848-8.9536 9.4688-13.359 3.2839-4.4058 6.6822-8.7802 10.219-13.078 3.5365-4.298 7.2265-8.513 11.016-12.703 3.7891-4.1902 7.677-8.3395 11.719-12.422s8.1328-8.0322 12.281-11.859c4.1485-3.8272 8.3542-7.5373 12.609-11.109 4.2552-3.5721 8.5756-6.9956 12.938-10.312 4.3619-3.3169 8.797-6.5476 13.266-9.6094 4.4686-3.0618 8.9715-5.959 13.547-8.7656 4.5753-2.8066 9.193-5.511 13.875-8.0625 4.6821-2.5515 9.4144-4.9693 14.203-7.2656 4.7888-2.2963 9.6358-4.4744 14.531-6.5156s9.8572-3.9327 14.859-5.7188c5.0022-1.786 10.032-3.4379 15.141-4.9688s10.3-2.943 15.516-4.2188c5.2157-1.2757 10.475-2.4482 15.797-3.4688s10.696-1.9064 16.125-2.6719c5.4291-0.76545 10.917-1.4116 16.453-1.9219 5.5358-0.5103 11.139-0.86985 16.781-1.125 5.6425-0.25515 11.313-0.375 17.062-0.375 6.2247 0 12.627 0.22917 19.219 0.75 6.5921 0.52083 13.384 1.3021 20.344 2.3438 6.9596 1.0417 14.095 2.375 21.422 3.9375s14.852 3.3542 22.547 5.4375c7.6945 2.0833 15.255 4.4462 22.734 7.0781 7.4792 2.632 14.861 5.5382 22.125 8.7188 7.2639 3.1806 14.42 6.6302 21.469 10.359s13.979 7.769 20.812 12.047l60-40.688c-4.5-3.4168-8.9896-6.7152-13.547-9.8906-4.5573-3.1754-9.1666-6.2065-13.781-9.1406-4.6146-2.9341-9.25-5.7448-13.922-8.4375-4.6719-2.6928-9.3802-5.283-14.109-7.7344-4.7292-2.4514-9.4635-4.7743-14.25-6.9844-4.7865-2.2101-9.6406-4.3125-14.484-6.2812-4.8438-1.9688-9.677-3.8038-14.578-5.5312-4.9011-1.7274-9.8541-3.342-14.812-4.8281-4.9583-1.4861-9.9202-2.8716-14.859-4.1719-4.9392-1.3003-9.8455-2.4948-14.766-3.6094-4.9201-1.1146-9.8177-2.165-14.719-3.0938-4.901-0.9288-9.79-1.7413-14.672-2.4844-4.8819-0.74305-9.7622-1.4115-14.625-1.9688-4.8628-0.55729-9.7344-1.0347-14.578-1.4062-4.8437-0.37153-9.6598-0.61112-14.484-0.79688s-9.632-0.28125-14.438-0.28125z"/>
</svg>
