<?xml version="1.0" encoding="UTF-8"?>
<svg width="40" height="40" version="1.1" viewBox="0 -960 960 960" xmlns="http://www.w3.org/2000/svg">
 <path d="m201.52-676.69 218.67 338.02c1.6112 2.4722 3.3125 4.809 5.1562 6.9844s3.8298 4.2152 5.9062 6.0938 4.2535 3.5746 6.5625 5.1562 4.724 3.0278 7.2656 4.3125c2.5417 1.2848 5.1945 2.434 7.9688 3.4219 2.7743 0.98787 5.665 1.7934 8.6719 2.4844s6.1355 1.2465 9.375 1.6406c3.2395 0.39412 6.606 0.65275 10.078 0.75 3.4722 0.0972 6.8437 0.0642 10.125-0.0937 3.2813-0.15797 6.4722-0.43057 9.5625-0.84375 3.0903-0.41319 6.1007-0.97222 9-1.6406 2.8994-0.66841 5.6823-1.467 8.3906-2.3906 2.7084-0.92363 5.3107-1.9618 7.8281-3.1406 2.5174-1.1788 4.9392-2.5034 7.2656-3.9375s4.5677-2.9982 6.7031-4.6875c2.1355-1.6893 4.1961-3.493 6.1406-5.4375 1.9444-1.9444 3.7552-4.0052 5.4375-6.1406 1.6823-2.1354 3.2205-4.3299 4.6406-6.6562 1.4201-2.3264 2.7326-4.7483 3.8906-7.2656s2.151-5.1667 3.0469-7.875c0.89584-2.7083 1.6632-5.4913 2.2969-8.3906 0.63369-2.8993 1.1285-5.9097 1.5-9 0.37154-3.0903 0.6406-6.2812 0.75-9.5625 0.1094-3.2813 0.059-6.6528-0.0937-10.125-0.15283-3.4722-0.40794-6.7916-0.84375-10.031-0.43581-3.2396-1.0156-6.368-1.7344-9.375-0.71879-3.007-1.5764-5.8976-2.5781-8.6719s-2.184-5.4271-3.4688-7.9688-2.6979-5.0035-4.2656-7.3125c-1.5677-2.309-3.2587-4.4861-5.1094-6.5625s-3.8663-4.0156-6-5.8594c-2.1337-1.8437-4.3802-3.592-6.7969-5.2031z" fill="#cf222e"/>
 <path d="m478.17-799.31c-4.8055 0-9.6129 0.0955-14.438 0.28125-4.8246 0.18576-9.6407 0.42535-14.484 0.79688-4.8437 0.37152-9.7153 0.84896-14.578 1.4062-4.8628 0.55728-9.7431 1.2257-14.625 1.9688-4.8819 0.74304-9.7708 1.5556-14.672 2.4844s-9.7986 1.9792-14.719 3.0938-9.8733 2.309-14.812 3.6094c-4.9392 1.3003-9.8542 2.6858-14.812 4.1719-4.9584 1.4861-9.9114 3.1007-14.812 4.8281-4.9011 1.7274-9.7812 3.5625-14.625 5.5312-4.8438 1.9687-9.651 4.0712-14.438 6.2812-4.7865 2.2101-9.5208 4.533-14.25 6.9844s-9.4375 5.0416-14.109 7.7344c-4.6719 2.6927-9.3073 5.5034-13.922 8.4375-4.6146 2.9341-9.224 5.9652-13.781 9.1406s-9.0938 6.4739-13.594 9.8906l60 40.688c6.8333-4.2778 13.764-8.3177 20.812-12.047s14.205-7.1788 21.469-10.359c7.2639-3.1806 14.646-6.0868 22.125-8.7188 7.4792-2.632 15.087-4.9948 22.781-7.0781s15.173-3.875 22.5-5.4375 14.509-2.8958 21.469-3.9375 13.705-1.8229 20.297-2.3438c6.5921-0.52083 12.994-0.75 19.219-0.75 5.7492 0 11.467 0.11985 17.109 0.375s11.245 0.6147 16.781 1.125 11.024 1.1564 16.453 1.9219c5.4291 0.76544 10.803 1.6513 16.125 2.6719 5.3224 1.0206 10.581 2.193 15.797 3.4688s10.36 2.6879 15.469 4.2188 10.185 3.1827 15.188 4.9688 9.917 3.6776 14.812 5.7188 9.7425 4.2193 14.531 6.5156c4.7888 2.2963 9.5211 4.7141 14.203 7.2656 4.6821 2.5515 9.3465 5.2559 13.922 8.0625s9.0782 5.7038 13.547 8.7656c4.4686 3.0618 8.9037 6.2924 13.266 9.6094s8.6354 6.7404 12.891 10.312c4.2552 3.5721 8.4609 7.2822 12.609 11.109 4.1485 3.8272 8.2395 7.777 12.281 11.859s7.9765 8.2317 11.766 12.422c3.7891 4.1902 7.4322 8.4052 10.969 12.703 3.5365 4.298 6.9817 8.6724 10.266 13.078 3.2839 4.4057 6.4374 8.8458 9.4688 13.359s5.94 9.113 8.7188 13.734c2.7787 4.6213 5.3958 9.2865 7.9219 14.016 2.5261 4.7291 4.9453 9.5068 7.2188 14.344 2.2735 4.8369 4.401 9.7272 6.4219 14.672 2.0209 4.9447 3.9505 9.9475 5.7188 15 1.7683 5.0525 3.4062 10.168 4.9219 15.328 1.5157 5.1603 2.9088 10.341 4.1719 15.609 1.263 5.2681 2.3646 10.608 3.375 15.984s1.914 10.782 2.6719 16.266c0.75783 5.4837 1.3698 11.049 1.875 16.641 0.50522 5.5914 0.91927 11.223 1.1719 16.922 0.25261 5.6992 0.375 11.443 0.375 17.25 0 7.3352-0.24304 14.683-0.75 22.031-0.50696 7.3486-1.283 14.716-2.2969 22.078-1.0139 7.362-2.276 14.75-3.7969 22.125s-3.3159 14.736-5.3438 22.125c-2.0278 7.389-4.2517 14.625-6.7031 21.75-2.4514 7.1251-5.1406 14.139-8.0156 21s-5.9358 13.606-9.2344 20.203c-3.2986 6.5972-6.8247 13.026-10.547 19.359h-570c-3.7222-6.1112-7.2014-12.404-10.5-18.891-3.2986-6.4862-6.4062-13.154-9.2812-20.016s-5.5173-13.904-7.9688-21.141c-2.4514-7.2362-4.7222-14.654-6.75-22.266-2.0277-7.6112-3.7761-15.231-5.2969-22.828-1.5207-7.5972-2.783-15.151-3.7969-22.734s-1.79-15.165-2.2969-22.734c-0.50691-7.5694-0.75-15.132-0.75-22.688 0-6.6667 0.23788-13.431 0.70313-20.25 0.46525-6.8195 1.132-13.7 2.0625-20.672s2.1199-14.016 3.5156-21.141c1.3958-7.125 3.014-14.332 4.875-21.609 0.93059-3.6389 1.9514-7.2482 3.0469-10.828 1.0955-3.5799 2.2552-7.1198 3.5156-10.641 1.2604-3.5208 2.6059-7.0382 4.0312-10.5 1.4254-3.4618 2.9566-6.9097 4.5469-10.312s3.2604-6.7344 5.0156-10.078c1.7552-3.3438 3.5642-6.6996 5.4844-9.9844s3.9149-6.5243 6-9.75 4.2656-6.3958 6.5156-9.5625l-42-60c-5.889 8.8335-11.406 17.694-16.594 26.625-5.1876 8.9307-10.045 17.925-14.531 26.953-4.4862 9.0278-8.6371 18.109-12.422 27.234-1.8924 4.5625-3.6736 9.1007-5.3906 13.688-1.717 4.5868-3.3333 9.217-4.875 13.828-1.5417 4.6111-2.9931 9.1997-4.3594 13.828s-2.6528 9.2761-3.8438 13.922c-1.191 4.6458-2.3125 9.3056-3.3281 13.969-1.0156 4.6632-1.9253 9.3351-2.7656 14.016s-1.5851 9.3646-2.25 14.062-1.2448 9.3941-1.7344 14.109c-0.4896 4.7153-0.90449 9.4705-1.2188 14.203s-0.56421 9.4531-0.70312 14.203c-0.27767 9.8333-0.18758 19.54 0.1875 29.109s1.0347 19.007 2.0625 28.312c0.51392 4.6528 1.151 9.2882 1.8281 13.875s1.4097 9.1198 2.25 13.641c0.84029 4.5208 1.7621 8.9982 2.7656 13.453s2.1146 8.8767 3.2812 13.266c2.3333 8.7778 4.9063 17.436 7.7812 25.922 2.875 8.4861 6.0521 16.837 9.4688 25.031s7.1042 16.238 11.062 24.141c3.9583 7.9027 8.1562 15.639 12.656 23.25 1.9443 3.5557 3.9966 6.8055 6.0938 9.75 2.0972 2.9445 4.2656 5.5885 6.5156 7.9219 2.25 2.3333 4.5816 4.3716 6.9844 6.0938s4.8506 3.1078 7.4062 4.2188c2.5555 1.1112 5.2049 2.1198 7.9688 2.9531 2.7638 0.83337 5.6528 1.5069 8.625 2.0625 2.9722 0.55558 6.0539 0.98783 9.2344 1.2656 3.1805 0.27779 6.4549 0.42188 9.8438 0.42188h564.66c3.0555 0 6.1268-0.18751 9.1406-0.5625 3.0139-0.375 5.9809-0.93751 8.9531-1.6875 2.9722-0.75 5.9288-1.6875 8.8594-2.8125 2.9306-1.125 5.8298-2.4375 8.7188-3.9375 2.8888-1.5 5.6146-3.1962 8.1562-5.0156s4.9306-3.7673 7.125-5.9062 4.1997-4.4322 6.0469-6.8906c1.8472-2.4584 3.5156-5.0972 5.0156-7.875 4.3333-7.8333 8.401-15.721 12.234-23.672 3.8333-7.9514 7.4479-15.977 10.781-24.047 3.3333-8.0694 6.401-16.188 9.2344-24.375 2.8333-8.1875 5.401-16.445 7.7344-24.75 2.3333-8.3055 4.3906-16.703 6.1406-25.266s3.1927-17.29 4.3594-26.109c1.1667-8.8194 2.0417-17.736 2.625-26.812 0.58334-9.0764 0.89063-18.276 0.89063-27.609 0-6.9167-0.14063-13.811-0.46875-20.625s-0.84375-13.585-1.5-20.297c-0.65625-6.7118-1.4531-13.359-2.4375-19.969-0.98437-6.6094-2.1562-13.181-3.4688-19.688-1.3125-6.507-2.7656-12.955-4.4062-19.359s-3.4688-12.729-5.4375-19.031-4.0781-12.55-6.375-18.75-4.7812-12.372-7.4062-18.469-5.3889-12.097-8.25-18-5.809-11.729-8.9062-17.438-6.3229-11.314-9.6562-16.828c-3.3333-5.5139-6.7899-10.899-10.359-16.219-3.5694-5.3195-7.2569-10.578-11.062-15.703-3.8056-5.125-7.7239-10.116-11.766-15.047-4.0417-4.9306-8.191-9.7952-12.469-14.531-4.2778-4.7361-8.7048-9.3802-13.219-13.922-4.5138-4.5417-9.1203-8.9601-13.828-13.266-4.7078-4.3056-9.4888-8.4931-14.391-12.562-4.9018-4.0694-9.9043-8.0261-15-11.859s-10.273-7.5122-15.562-11.109c-5.2897-3.5972-10.688-7.092-16.172-10.453-5.4837-3.3611-11.057-6.625-16.734-9.75s-11.472-6.1111-17.344-9-11.841-5.6441-17.906-8.2969c-6.0655-2.6528-12.169-5.132-18.328-7.4531-6.159-2.3212-12.357-4.4792-18.609-6.4688s-12.545-3.8264-18.891-5.4844c-6.346-1.658-12.779-3.1736-19.219-4.5-6.4394-1.3264-12.92-2.474-19.453-3.4688-6.5329-0.99479-13.108-1.8212-19.734-2.4844-6.6264-0.66319-13.296-1.1684-20.016-1.5s-13.483-0.46875-20.297-0.46875z"/>
</svg>
