<?xml version="1.0" encoding="UTF-8"?>
<svg width="40" height="40" version="1.1" viewBox="0 -960 960 960" xmlns="http://www.w3.org/2000/svg">
 <path d="m410.67-330q23.334 23.334 65.001 22.167 41.666-1.167 61-30.834l218.67-338-335.33 220.67q-29 19.333-30.834 61-1.833 41.667 21.5 65zm68.001-469.33q57.666 0 117.17 17.833 59.501 17.833 113.5 58.834l-60 40.666q-41-25.667-87.167-38.167t-83.515-12.5q-137.98 0-234.98 97.977t-97.002 237.35q0 44.011 12.167 88.344 12.167 44.334 34.5 82.334h570q22.333-36.667 34.5-82.334 12.166-45.667 12.166-91 0-40-11.166-83.667-11.167-43.667-38.167-81.667l41.999-60q35.334 53.001 53.834 108.33t20.167 112.33q1.666 59-12.334 111.67t-41 98.333q-11.666 21.334-27 28-15.333 6.667-35.666 6.667h-564.67q-18.333 0-35.667-9-17.333-9-26.333-25.667-26-47-40-96.833t-14-105.83q0-83 31.5-156.17t85.667-127.67q54.166-54.5 126.95-86.333 72.786-31.833 154.55-31.833z"/>
</svg>
