<?xml version="1.0" encoding="UTF-8"?>
<svg width="40" height="40" version="1.1" viewBox="0 -960 960 960" xmlns="http://www.w3.org/2000/svg">
 <path d="m562.67-99.333q-19.666 19.666-47.999 19.666t-48-19.666l-367.33-367.33q-10.333-10.333-14.833-22.667-4.5-12.333-4.5-25.999v-298q0-28.333 19.166-47.499 19.168-19.167 47.5-19.167h298q13.666 0 26.666 4.5t23.333 14.833l366 366.33q20.333 20.333 20.333 48.5 0 28.166-20.333 48.499l-298 298zm-46.333-46 298-298-369.67-370h-298v298l369.67 370zm-266.33-510.67q22.333 0 38.5-16.167 16.166-16.167 16.166-38.5t-16.166-38.5q-16.167-16.166-38.5-16.166-22.334 0-38.5 16.166-16.167 16.167-16.167 38.5t16.167 38.5q16.166 16.167 38.5 16.167z"/>
</svg>
