<?xml version="1.0" encoding="UTF-8"?>
<svg width="40" height="40" version="1.1" viewBox="0 -960 960 960" xmlns="http://www.w3.org/2000/svg">
 <path d="m332-285.33 148-148 148 148 46.667-46.667-148-148 148-148-46.667-46.667-148 148-148-148-46.667 46.667 148 148-148 148 46.667 46.667zm148 205.33q-82.333 0-155.33-31.5t-127.33-85.833q-54.333-54.334-85.833-127.33t-31.5-155.33q0-83 31.5-156t85.833-127q54.334-54 127.33-85.5t155.33-31.5q83 0 156 31.5t127 85.5q54 54 85.5 127t31.5 156q0 82.333-31.5 155.33t-85.5 127.33q-54 54.333-127 85.833t-156 31.5zm0-66.666q139.33 0 236.33-97.334 97-97.333 97-236 0-139.33-97-236.33-97.001-97-236.33-97-138.67 0-236 97-97.334 97.001-97.334 236.33 0 138.67 97.334 236 97.333 97.334 236 97.334z" fill="#cf222e"/>
</svg>
