<?xml version="1.0" encoding="UTF-8"?>
<svg width="32" height="32" version="1.1" viewBox="0 0 32 32" xmlns="http://www.w3.org/2000/svg">
 <g fill="none" stroke-width="2">
  <path d="m11.773 22.686-0.875-7.8359c-0.01264-0.1314-0.01953-0.26804-0.01953-0.40234 0-0.15693 0.0079-0.31196 0.02539-0.46484 0.01752-0.15289 0.04395-0.30309 0.07813-0.45117 0.03417-0.14808 0.07699-0.29305 0.12695-0.43555 0.04996-0.1425 0.10699-0.28181 0.17188-0.41797 0.06489-0.13615 0.13785-0.2694 0.2168-0.39844 0.07894-0.12904 0.16372-0.25385 0.25586-0.375 0.09214-0.12115 0.19046-0.23906 0.29492-0.35156 0.10447-0.1125 0.2161-0.22114 0.33203-0.32422 0.11593-0.10308 0.23675-0.20009 0.36328-0.29297 0.12653-0.09288 0.25826-0.18175 0.39453-0.26367 0.13627-0.08192 0.27674-0.15832 0.42188-0.22852 0.14514-0.07019 0.29412-0.13372 0.44727-0.19141 0.15314-0.05769 0.31042-0.10792 0.4707-0.15234 0.16028-0.04442 0.32368-0.0829 0.49023-0.11328 0.16656-0.030384 0.33584-0.052783 0.50781-0.068359 0.17197-0.015576 0.34692-0.023437 0.52344-0.023437s0.35147 0.00786 0.52344 0.023437c0.17197 0.015579 0.34126 0.037971 0.50781 0.068359s0.32995 0.068854 0.49023 0.11328c0.16028 0.04443 0.31756 0.09465 0.4707 0.15234 0.15314 0.0577 0.30213 0.12121 0.44727 0.19141 0.14514 0.0702 0.28561 0.14659 0.42188 0.22852 0.13627 0.08193 0.268 0.17078 0.39453 0.26367s0.24735 0.18989 0.36328 0.29297c0.11593 0.10308 0.22756 0.21172 0.33203 0.32422 0.10447 0.1125 0.20278 0.23041 0.29492 0.35156 0.09214 0.12116 0.17692 0.24596 0.25586 0.375 0.07894 0.12904 0.15191 0.26229 0.2168 0.39844 0.06489 0.13615 0.12191 0.27548 0.17188 0.41797 0.04996 0.14249 0.09278 0.28748 0.12695 0.43555 0.03417 0.14807 0.06061 0.2983 0.07813 0.45117s0.02539 0.30794 0.02539 0.46484c0 0.13431-0.0069 0.27062-0.01953 0.40234l-0.87501 7.8359m8.8438 0.73628 0.87692-7.8906c0.01741-0.1808 0.03018-0.36209 0.03906-0.54297 0.008867-0.18088 0.013661-0.36119 0.013661-0.54102 0-0.21451-0.0055-0.4268-0.01758-0.63867-0.01212-0.21187-0.03074-0.42384-0.05469-0.63281-0.02394-0.20898-0.05437-0.41527-0.08984-0.62109-0.03547-0.20582-0.07634-0.41088-0.12305-0.61328-0.0467-0.2024-0.09861-0.40285-0.15625-0.60156-0.057639-0.19872-0.12117-0.39507-0.18945-0.58984-0.068281-0.19477-0.14208-0.38756-0.2207-0.57812-0.078626-0.19056-0.16132-0.37836-0.25-0.56445-0.088677-0.18609-0.18282-0.37138-0.28125-0.55273-0.098431-0.18136-0.2007-0.3588-0.30859-0.53516-0.10789-0.17636-0.22084-0.35038-0.33789-0.52148s-0.23931-0.34028-0.36523-0.50586c-0.12592-0.16558-0.25613-0.32849-0.39062-0.48828-0.1345-0.1598-0.27324-0.31695-0.41602-0.4707-0.14277-0.15375-0.2887-0.30373-0.43945-0.45117-0.15076-0.14744-0.3064-0.29077-0.46484-0.43164-0.15844-0.14087-0.3205-0.27808-0.48633-0.41211-0.16583-0.13403-0.33488-0.26564-0.50781-0.39258-0.17293-0.12694-0.34957-0.24956-0.5293-0.36914-0.17973-0.11958-0.3626-0.2357-0.54883-0.34766-0.18623-0.11195-0.37592-0.22015-0.56836-0.32422-0.19244-0.10407-0.38758-0.20486-0.58594-0.30078-0.19835-0.09592-0.39954-0.18788-0.60352-0.27539-0.20397-0.08751-0.4118-0.16921-0.62109-0.24805-0.20929-0.078837-0.42044-0.15471-0.63476-0.22461-0.21432-0.069902-0.43134-0.13461-0.65039-0.19531-0.21905-0.060704-0.44058-0.11673-0.66406-0.16797s-0.44815-0.097152-0.67578-0.13867c-0.22763-0.04152-0.45798-0.077842-0.68945-0.10938-0.23147-0.031534-0.4642-0.058793-0.69922-0.080078-0.23502-0.021285-0.47266-0.038054-0.71094-0.048828s-0.47752-0.015625-0.71875-0.015625-0.48048 0.00485-0.71875 0.015625c-0.23828 0.010774-0.47592 0.027543-0.71094 0.048828-0.23502 0.021285-0.46775 0.048545-0.69922 0.080078s-0.46183 0.067855-0.68945 0.10938c-0.22763 0.041519-0.45229 0.087429-0.67578 0.13867-0.22349 0.051243-0.44501 0.10727-0.66406 0.16797-0.21905 0.060704-0.43607 0.12541-0.65039 0.19531-0.21432 0.069902-0.42547 0.14577-0.63476 0.22461-0.20929 0.078838-0.41712 0.16054-0.62109 0.24805-0.20397 0.08751-0.40516 0.17947-0.60352 0.27539-0.19835 0.09592-0.3935 0.19671-0.58594 0.30078-0.19244 0.10407-0.38213 0.21227-0.56836 0.32422-0.18623 0.11195-0.3691 0.22808-0.54883 0.34766-0.17973 0.11958-0.35637 0.24221-0.5293 0.36914-0.17293 0.12694-0.34198 0.25855-0.50781 0.39258-0.16583 0.13403-0.32789 0.27124-0.48633 0.41211-0.15844 0.14087-0.31409 0.2842-0.46484 0.43164-0.15076 0.14744-0.29668 0.29742-0.43945 0.45117-0.14277 0.15375-0.28152 0.31091-0.41602 0.4707-0.1345 0.1598-0.2647 0.3227-0.39062 0.48828-0.12592 0.16558-0.24818 0.33476-0.36523 0.50586-0.11706 0.1711-0.23 0.34512-0.33789 0.52148-0.10789 0.17636-0.21016 0.3538-0.30859 0.53516-0.098432 0.18136-0.19257 0.36664-0.28125 0.55273s-0.17137 0.37389-0.25 0.56445c-0.078627 0.19056-0.15242 0.38336-0.2207 0.57812-0.068281 0.19477-0.13181 0.39113-0.18945 0.58984-0.05764 0.19872-0.10955 0.39916-0.15625 0.60156-0.046703 0.2024-0.087577 0.40746-0.12305 0.61328-0.03547 0.20582-0.065901 0.41212-0.089844 0.62109-0.023942 0.20898-0.042569 0.42094-0.054687 0.63281-0.012119 0.21187-0.017578 0.42417-0.017578 0.63867 0 0.17983 0.00484 0.36014 0.013672 0.54102 0.00884 0.18088 0.021822 0.36217 0.039063 0.54297l0.87695 7.8906" stroke="#cf222e" style="paint-order:normal"/>
  <path d="m20.227 22.686-0.53125 5.6875c-0.0061 0.06684-0.0059 0.13105 2e-3 0.19531 0.0079 0.06426 0.02238 0.12726 0.04297 0.1875s0.04805 0.11904 0.08008 0.17383c0.03203 0.05478 0.06914 0.10641 0.11133 0.1543 0.04219 0.04789 0.08954 0.0913 0.14062 0.13086 0.05108 0.03956 0.10536 0.07568 0.16406 0.10547 0.0587 0.02979 0.12245 0.05369 0.1875 0.07227 0.06505 0.01857 0.133 0.03118 0.20312 0.03711l6.8027 0.56641c0.07013 6e-3 0.13959 0.0055 0.20703-2e-3 0.06744-0.0074 0.13403-0.02145 0.19726-0.04102 0.06323-0.01957 0.12413-0.04567 0.18164-0.07617 0.05751-0.0305 0.11183-0.06526 0.16211-0.10547 0.05028-0.04021 0.09519-0.08607 0.13672-0.13476 0.04153-0.04869 0.07811-0.1003 0.10938-0.15625 0.03127-0.05595 0.05864-0.11575 0.07813-0.17774 0.01948-0.06199 0.03287-0.12656 0.03906-0.19336l0.5293-5.6875z" stroke="#808080"/>
  <path d="m11.773 22.686-8.8438 0.73633 0.53125 5.6875c0.0061 0.06679 0.019624 0.13137 0.039063 0.19336 0.019438 0.06199 0.044923 0.12178 0.076172 0.17774 0.031249 0.05595 0.067838 0.10756 0.10938 0.15625 0.041537 0.04869 0.08837 0.09455 0.13867 0.13476 0.050302 0.04021 0.10457 0.07497 0.16211 0.10547 0.057543 0.0305 0.11838 0.0566 0.18164 0.07617 0.063261 0.01957 0.12786 0.0336 0.19531 0.04102 0.067456 0.0074 0.1369 0.0079 0.20703 2e-3l6.8047-0.56646c0.06996-0.0059 0.13624-0.01853 0.20117-0.03711 0.06493-0.01858 0.12691-0.04248 0.18555-0.07227 0.05863-0.02979 0.11496-0.06591 0.16602-0.10547 0.05106-0.03956 0.09842-0.08297 0.14062-0.13086 0.0422-0.04789 0.07926-0.09951 0.11133-0.1543 0.03207-0.05478 0.05941-0.11359 0.08008-0.17383 0.02067-0.06024 0.03498-0.12324 0.04297-0.1875 8e-3 -0.06426 0.0079-0.12847 2e-3 -0.19531z" stroke="#808080"/>
 </g>
</svg>
