<?xml version="1.0" encoding="UTF-8"?>
<svg width="40" height="40" version="1.1" viewBox="0 -960 960 960" xmlns="http://www.w3.org/2000/svg">
 <path d="m553.33-560q0-30.25-21.541-51.792-21.542-21.541-51.792-21.541-12.667 0-23.333 4-10.667 4-19.334 11l101 101q7-8.667 11-19.334 4-10.666 4-23.333zm167.33 225-48.666-48.666q31-48 46.167-90.167t15.167-78.167q0-114.86-73.361-188.1-73.362-73.237-179.97-73.237-50.667 0-94.5 16.834-43.834 16.833-77.501 48.833l-46.999-46.999q44.333-41.667 101.15-63.501 56.82-21.833 117.85-21.833 127 0 223.5 89t96.5 239q0 50-19.667 103.83-19.666 53.834-59.667 113.17zm-132.33 58.333-351.67-351.67q-5.333 17.333-7.666 36.667-2.334 19.333-2.334 39.667 0 73.667 63 169.83 63.001 96.166 190.33 214.17 31.333-28.334 58.167-55.501 26.833-27.167 50.167-53.167zm240 240-192.67-192.67q-32.667 36-71 73.334-38.334 37.333-84.667 76-161-137-240.5-254.5t-79.5-217.5q0-35.793 6-68.23t17.667-61.104l-157.33-157.33 47.667-47.667 802 802-47.666 47.667z" fill="#808080"/>
</svg>
