<?xml version="1.0" encoding="UTF-8"?>
<svg width="40" height="40" version="1.1" viewBox="0 -960 960 960" xmlns="http://www.w3.org/2000/svg">
 <path d="m480.06-486.67q30.274 0 51.774-21.559t21.5-51.833q0-30.274-21.559-51.774t-51.833-21.5q-30.274 0-51.774 21.559t-21.5 51.833q0 30.274 21.559 51.774t51.833 21.5zm-0.059 318.67q129.33-118 191.33-214.17 62-96.167 62-169.83 0-114.86-73.361-188.1-73.362-73.237-179.97-73.237t-179.97 73.237q-73.361 73.237-73.361 188.1 0 73.667 63 169.83 63.001 96.166 190.33 214.17zm0 87.999q-161-137-240.5-254.5t-79.5-217.5q0-150 96.5-239t223.5-89q127 0 223.5 89t96.5 239q0 100-79.5 217.5t-240.5 254.5z"/>
</svg>
