<?xml version="1.0" encoding="UTF-8"?>
<svg width="40" height="40" version="1.1" viewBox="0 -960 960 960" xmlns="http://www.w3.org/2000/svg">
 <path d="M446.667-520h66.666v-200h-66.666v200ZM480-373.334q13.667 0 23.5-9.833t9.833-23.5q0-13.666-9.833-23.5Q493.667-440 480-440t-23.5 9.833q-9.833 9.834-9.833 23.5 0 13.667 9.833 23.5t23.5 9.833Zm0 205.335Q609.334-286 671.334-382.166q62-96.167 62-169.834 0-115-73.5-188.167Q586.333-813.334 480-813.334t-179.834 73.167Q226.666-667 226.666-552q0 73.667 63 169.834Q352.667-286 480-167.999ZM480-80Q319-217 239.5-334.5T160-552q0-150 96.5-239T480-880q127 0 223.5 89T800-552q0 100-79.5 217.5T480-80Zm0-480Z" fill="#bf8700"/>
</svg>
