<?xml version="1.0" encoding="UTF-8"?>
<svg width="40" height="40" version="1.1" viewBox="0 -960 960 960" xmlns="http://www.w3.org/2000/svg">
 <path d="M480-80Q319-217 239.5-334.5T160-552q0-150 96.5-239T480-880q14 0 27.834 1.5 13.833 1.5 28.166 4.167v67.666q-13.777-3.333-27.555-5-13.778-1.667-28.445-1.667-106.611 0-179.973 73.237Q226.666-666.86 226.666-552q0 73.667 63 169.834Q352.667-286 480-167.999 609.334-286 671.334-382.166q62-96.167 62-169.834 0-6-.5-12t-1.167-12h66.666q.667 6 1.167 12t.5 12q0 100-79.5 217.5T480-80Zm0-438.666Zm195-128.668 84-84 84 84L889.666-694l-84-84 84-84L843-908.666l-84 84-84-84L628.334-862l84 84-84 84L675-647.334ZM480.059-486.667q30.274 0 51.774-21.559t21.5-51.833q0-30.274-21.559-51.774t-51.833-21.5q-30.274 0-51.774 21.559t-21.5 51.833q0 30.274 21.559 51.774t51.833 21.5Z" fill="#cf222e"/>
</svg>
