<?xml version="1.0" encoding="UTF-8"?>
<svg width="40" height="40" version="1.1" viewBox="0 -960 960 960" xmlns="http://www.w3.org/2000/svg">
 <path d="m513.33-812.02v298.69h298.69c-0.51387-4.9167-1.128-9.7938-1.8281-14.625-0.70007-4.8312-1.5044-9.5981-2.3906-14.344-0.88626-4.7457-1.8806-9.4492-2.9531-14.109s-2.2101-9.3004-3.4688-13.875-2.6333-9.1046-4.0781-13.594c-1.4449-4.4892-2.9627-8.9557-4.5938-13.359-1.6311-4.4036-3.3859-8.76-5.2031-13.078s-3.7153-8.5642-5.7188-12.797c-2.0035-4.2326-4.0916-8.4154-6.2812-12.562-2.1896-4.1471-4.4679-8.2665-6.8438-12.328s-4.8442-8.0707-7.4062-12.047c-2.562-3.9761-5.2205-7.9219-7.9688-11.812-2.7482-3.8906-5.5968-7.7261-8.5312-11.531-2.9344-3.8051-5.9731-7.5772-9.0938-11.297s-6.3025-7.3815-9.6094-11.016c-3.3068-3.6341-6.7257-7.2326-10.219-10.781-3.4931-3.5486-7.01-7.0056-10.594-10.359-3.5838-3.3537-7.2474-6.638-10.922-9.7969-3.6745-3.1589-7.391-6.2235-11.156-9.1875-3.7652-2.964-7.5816-5.809-11.438-8.5781s-7.7252-5.4414-11.672-8.0156c-3.9466-2.5742-7.9626-5.0738-12-7.4531-4.0373-2.3793-8.1063-4.6593-12.234-6.8438s-8.2969-4.2448-12.516-6.2344c-4.2188-1.9896-8.4874-3.8772-12.797-5.6719s-8.6779-3.5096-13.078-5.1094c-4.4002-1.5998-8.8216-3.0951-13.312-4.5-4.4909-1.405-9.059-2.7274-13.641-3.9375-4.5816-1.2101-9.2027-2.313-13.875-3.3281s-9.3932-1.9453-14.156-2.7656c-4.763-0.82031-9.5369-1.5308-14.391-2.1562-4.8537-0.62543-9.7743-1.1632-14.719-1.5938z" fill="#2da44e"/>
 <path d="m480-879.98c-6.9167 0-13.766 0.14062-20.578 0.46875-6.8125 0.32812-13.589 0.84375-20.297 1.5-6.7083 0.65624-13.365 1.4531-19.969 2.4375-6.6042 0.98437-13.141 2.1562-19.641 3.4688-6.5 1.3125-12.964 2.7656-19.359 4.4062-6.3958 1.6406-12.74 3.4688-19.031 5.4375-6.2917 1.9687-12.516 4.0781-18.703 6.375-6.1875 2.2969-12.339 4.7812-18.422 7.4062-6.0833 2.625-12.068 5.3438-17.953 8.2031-5.8854 2.8594-11.656 5.8594-17.344 8.9531-5.6875 3.0937-11.292 6.2812-16.781 9.6094-5.4896 3.3281-10.88 6.7969-16.172 10.359-5.2917 3.5625-10.469 7.2188-15.562 11.016s-10.104 7.7344-15 11.766c-4.8958 4.0312-9.6927 8.1562-14.391 12.422-4.6979 4.2656-9.2812 8.6719-13.781 13.172-4.5 4.5-8.9062 9.0833-13.172 13.781-4.2656 4.6979-8.3906 9.4948-12.422 14.391-4.0312 4.8958-7.9688 9.9063-11.766 15s-7.4531 10.271-11.016 15.562c-3.5625 5.2917-7.0312 10.682-10.359 16.172-3.3281 5.4896-6.5156 11.094-9.6094 16.781-3.0937 5.6875-6.0938 11.458-8.9531 17.344-2.8594 5.8854-5.5781 11.87-8.2031 17.953-2.625 6.0833-5.1094 12.234-7.4062 18.422-2.2969 6.1875-4.4063 12.411-6.375 18.703s-3.7969 12.635-5.4375 19.031-3.0938 12.859-4.4062 19.359c-1.3125 6.5-2.4844 13.036-3.4688 19.641s-1.7813 13.26-2.4375 19.969-1.1719 13.484-1.5 20.297c-0.32812 6.8125-0.46875 13.661-0.46875 20.578s0.14062 13.766 0.46875 20.578c0.32812 6.8125 0.84375 13.589 1.5 20.297s1.4531 13.365 2.4375 19.969 2.1563 13.141 3.4688 19.641c1.3125 6.5 2.7656 12.964 4.4062 19.359s3.4688 12.74 5.4375 19.031 4.0781 12.516 6.375 18.703c2.2969 6.1875 4.7812 12.339 7.4062 18.422 2.625 6.0833 5.3438 12.068 8.2031 17.953 2.8594 5.8854 5.8594 11.656 8.9531 17.344 3.0938 5.6875 6.2813 11.292 9.6094 16.781 3.3281 5.4896 6.7969 10.88 10.359 16.172 3.5625 5.2917 7.2188 10.469 11.016 15.562s7.7344 10.104 11.766 15c4.0312 4.8958 8.1563 9.6927 12.422 14.391 4.2656 4.6979 8.6719 9.2812 13.172 13.781 4.5 4.5 9.0833 8.9062 13.781 13.172 4.6979 4.2656 9.4948 8.3906 14.391 12.422 4.8958 4.0312 9.9063 7.9688 15 11.766s10.271 7.4531 15.562 11.016c5.2917 3.5625 10.682 7.0312 16.172 10.359 5.4896 3.3281 11.094 6.5156 16.781 9.6094 5.6875 3.0937 11.458 6.0938 17.344 8.9531 5.8854 2.8594 11.87 5.5781 17.953 8.2031 6.0833 2.625 12.234 5.1094 18.422 7.4062 6.1875 2.2969 12.411 4.4063 18.703 6.375s12.635 3.7969 19.031 5.4375 12.859 3.0938 19.359 4.4062c6.5 1.3125 13.036 2.4844 19.641 3.4688s13.26 1.7813 19.969 2.4375 13.484 1.1719 20.297 1.5c6.8125 0.32812 13.661 0.46875 20.578 0.46875s13.766-0.14062 20.578-0.46875c6.8125-0.32812 13.589-0.84375 20.297-1.5s13.365-1.4531 19.969-2.4375 13.141-2.1563 19.641-3.4688c6.5-1.3125 12.964-2.7656 19.359-4.4062s12.74-3.4688 19.031-5.4375 12.516-4.0781 18.703-6.375c6.1875-2.2969 12.339-4.7812 18.422-7.4062 6.0833-2.625 12.068-5.342 17.953-8.2031 5.8854-2.8611 11.656-5.8559 17.344-8.9531 5.6875-3.0972 11.292-6.3229 16.781-9.6562 5.4896-3.3334 10.88-6.7899 16.172-10.359s10.469-7.2569 15.562-11.062 10.104-7.7239 15-11.766c4.8958-4.0417 9.6927-8.191 14.391-12.469 4.6979-4.2778 9.2813-8.658 13.781-13.172 4.5-4.5138 8.9063-9.1181 13.172-13.828 4.2656-4.71 8.3906-9.5313 12.422-14.438 4.0312-4.9062 7.9688-9.8976 11.766-15 3.7969-5.1024 7.4531-10.311 11.016-15.609 3.5625-5.2986 7.0313-10.724 10.359-16.219s6.5156-11.09 9.6094-16.781c3.0938-5.691 6.0938-11.457 8.9531-17.344s5.5781-11.87 8.2031-17.953c2.625-6.0833 5.1094-12.238 7.4062-18.422 2.2969-6.184 4.4063-12.418 6.375-18.703 1.9688-6.2847 3.7969-12.599 5.4375-18.984 1.6406-6.3854 3.0938-12.826 4.4062-19.312 1.3125-6.4861 2.4844-13.007 3.4688-19.594 0.98438-6.5868 1.7813-13.234 2.4375-19.922 0.65625-6.6875 1.1719-13.415 1.5-20.203 0.32813-6.7882 0.46875-13.642 0.46875-20.531 0-6.9167-0.14062-13.767-0.46875-20.578-0.32812-6.8108-0.84375-13.592-1.5-20.297-0.65624-6.7048-1.4531-13.323-2.4375-19.922-0.98437-6.599-2.1562-13.148-3.4688-19.641-1.3125-6.493-2.7656-12.972-4.4062-19.359-1.6406-6.3871-3.4688-12.703-5.4375-18.984-1.9687-6.2812-4.0781-12.528-6.375-18.703-2.2969-6.1753-4.7812-12.259-7.4062-18.328-2.625-6.0695-5.342-12.078-8.2031-17.953-2.8611-5.875-5.8559-11.616-8.9531-17.297-3.0972-5.6806-6.3229-11.295-9.6562-16.781-3.3333-5.4861-6.7899-10.88-10.359-16.172-3.5694-5.2917-7.2569-10.465-11.062-15.562-3.8056-5.0972-7.7239-10.097-11.766-15-4.0417-4.9028-8.191-9.7292-12.469-14.438-4.2778-4.7083-8.658-9.3143-13.172-13.828-4.5138-4.5139-9.1198-8.8941-13.828-13.172-4.7083-4.2778-9.5348-8.4271-14.438-12.469-4.9027-4.0417-9.9028-7.9601-15-11.766-5.0972-3.8056-10.271-7.493-15.562-11.062-5.2917-3.5694-10.686-7.026-16.172-10.359-5.4861-3.3334-11.101-6.559-16.781-9.6562-5.6806-3.0972-11.422-6.092-17.297-8.9531-5.875-2.8611-11.884-5.5781-17.953-8.2031-6.0694-2.625-12.153-5.1094-18.328-7.4062-6.1753-2.2969-12.422-4.4063-18.703-6.375-6.2812-1.9688-12.597-3.7969-18.984-5.4375-6.3871-1.6406-12.866-3.0938-19.359-4.4062-6.493-1.3125-13.042-2.4844-19.641-3.4688-6.5989-0.98438-13.217-1.7813-19.922-2.4375-6.7048-0.65625-13.486-1.1719-20.297-1.5-6.8108-0.32813-13.661-0.46875-20.578-0.46875zm-33.328 67.969v664.03c-5.3194-0.51388-10.585-1.1446-15.797-1.875-5.2114-0.73046-10.365-1.5842-15.469-2.5312-5.1033-0.94704-10.145-1.977-15.141-3.1406-4.9952-1.1636-9.9722-2.4636-14.859-3.8438s-9.7053-2.8564-14.484-4.4531c-4.7791-1.5968-9.4852-3.296-14.156-5.1094-4.671-1.8134-9.312-3.7357-13.875-5.7656-4.5629-2.0299-9.0451-4.1754-13.5-6.4219-4.4549-2.2465-8.872-4.615-13.219-7.0781-4.3468-2.4631-8.6519-5.0078-12.891-7.6875-4.2387-2.6797-8.4318-5.4944-12.562-8.3906s-8.1649-5.8872-12.188-9-7.9917-6.3268-11.906-9.6562-7.8186-6.7665-11.625-10.312-7.5516-7.2062-11.25-10.969-7.3316-7.6458-10.922-11.625c-3.5903-3.9792-7.0404-7.9813-10.406-12.047-3.3659-4.0655-6.6554-8.1762-9.7969-12.328s-6.1766-8.3711-9.0938-12.609c-2.9171-4.2383-5.6979-8.5191-8.3906-12.844-2.6927-4.3247-5.266-8.6671-7.7344-13.078s-4.8342-8.862-7.0781-13.359c-2.2439-4.4974-4.3555-9.0569-6.375-13.641-2.0195-4.5838-3.9705-9.2049-5.7656-13.875s-3.4449-9.3997-5.0156-14.156c-1.5708-4.7565-3.0599-9.5477-4.4062-14.391-1.3464-4.8429-2.5812-9.7426-3.7031-14.672s-2.1024-9.8906-3-14.906-1.7174-10.086-2.3906-15.188c-0.67317-5.102-1.1918-10.234-1.6406-15.422-0.44879-5.1884-0.80686-10.428-1.0312-15.703s-0.32813-10.576-0.32813-15.938 0.10374-10.663 0.32813-15.938 0.58246-10.515 1.0312-15.703c0.44879-5.1884 0.96745-10.32 1.6406-15.422 0.67318-5.102 1.4931-10.172 2.3906-15.188s1.878-9.977 3-14.906 2.3568-9.829 3.7031-14.672c1.3464-4.8429 2.8355-9.6341 4.4062-14.391 1.5708-4.7565 3.2205-9.4861 5.0156-14.156s3.7461-9.2912 5.7656-13.875c2.0195-4.5838 4.1311-9.1432 6.375-13.641 2.2439-4.4974 4.6098-8.9484 7.0781-13.359s5.0417-8.7535 7.7344-13.078c2.6927-4.3247 5.4735-8.6055 8.3906-12.844 2.9171-4.2383 5.9522-8.4575 9.0938-12.609s6.431-8.2626 9.7969-12.328c3.3659-4.0655 6.816-8.0677 10.406-12.047 3.5903-3.9792 7.2235-7.8624 10.922-11.625s7.4436-7.4228 11.25-10.969 7.7105-6.9831 11.625-10.312 7.8837-6.5434 11.906-9.6562 8.0568-6.1037 12.188-9 8.3238-5.711 12.562-8.3906c4.2387-2.6797 8.5438-5.2244 12.891-7.6875 4.3468-2.4631 8.7639-4.8316 13.219-7.0781 4.4549-2.2465 8.9371-4.3919 13.5-6.4219 4.563-2.0299 9.204-3.9523 13.875-5.7656 4.671-1.8134 9.3772-3.5126 14.156-5.1094 4.7791-1.5968 9.5972-3.0729 14.484-4.4531s9.8641-2.6801 14.859-3.8438c4.9952-1.1636 10.037-2.1936 15.141-3.1406 5.1033-0.94704 10.257-1.8008 15.469-2.5312 5.2114-0.73046 10.477-1.3611 15.797-1.875zm66.656 0c4.9445 0.43054 9.865 0.96832 14.719 1.5938 4.8538 0.62542 9.6276 1.3359 14.391 2.1562 4.763 0.8203 9.4839 1.7504 14.156 2.7656s9.2934 2.1181 13.875 3.3281c4.5816 1.2101 9.1497 2.5326 13.641 3.9375 4.4909 1.4049 8.9123 2.9002 13.312 4.5 4.4002 1.5998 8.7686 3.3147 13.078 5.1094s8.5781 3.6823 12.797 5.6719c4.2188 1.9896 8.3876 4.0499 12.516 6.2344s8.197 4.4644 12.234 6.8438c4.0374 2.3793 8.0534 4.8789 12 7.4531 3.9466 2.5742 7.816 5.2465 11.672 8.0156s7.6723 5.6141 11.438 8.5781c3.7652 2.964 7.4818 6.0286 11.156 9.1875 3.6745 3.1589 7.3381 6.4431 10.922 9.7969 3.5838 3.3537 7.1007 6.8108 10.594 10.359 3.493 3.5486 6.9119 7.1471 10.219 10.781 3.3068 3.6341 6.4887 7.296 9.6094 11.016s6.1593 7.4918 9.0938 11.297c2.9344 3.8051 5.783 7.6406 8.5312 11.531 2.7482 3.8906 5.4067 7.8364 7.9688 11.812 2.562 3.9761 5.0304 7.9852 7.4062 12.047s4.6541 8.181 6.8438 12.328c2.1896 4.1471 4.2778 8.3298 6.2812 12.562 2.0035 4.2326 3.9015 8.4787 5.7188 12.797s3.5721 8.6745 5.2031 13.078c1.6311 4.4036 3.1489 8.8702 4.5938 13.359 1.4449 4.4892 2.8195 9.0191 4.0781 13.594s2.3963 9.2148 3.4688 13.875 2.0669 9.3637 2.9531 14.109c0.88627 4.7456 1.6906 9.5126 2.3906 14.344 0.70007 4.8312 1.3142 9.7083 1.8281 14.625h-298.69zm0 365.34h298.69c-0.49999 4.9167-1.0938 9.7934-1.7812 14.625-0.68749 4.8316-1.4688 9.6441-2.3438 14.391-0.87499 4.7465-1.8438 9.4479-2.9062 14.109-1.0625 4.6614-2.2188 9.2517-3.4688 13.828-1.25 4.5764-2.5938 9.1024-4.0312 13.594-1.4375 4.4913-2.9688 8.9531-4.5938 13.359-1.625 4.4062-3.3438 8.7569-5.1562 13.078-1.8125 4.3212-3.7188 8.6076-5.7188 12.844-2 4.2361-4.0938 8.4583-6.2812 12.609-2.1875 4.151-4.4688 8.2621-6.8438 12.328-2.375 4.066-4.8438 8.066-7.4062 12.047-2.5625 3.9809-5.2188 7.9166-7.9688 11.812-2.75 3.8958-5.5938 7.7673-8.5312 11.578-2.9375 3.8108-5.9688 7.5712-9.0938 11.297-3.125 3.7257-6.3438 7.4218-9.6562 11.062-3.3125 3.6406-6.7188 7.2257-10.219 10.781-3.5 3.5556-7.0503 7-10.641 10.359s-7.2413 6.6337-10.922 9.7969c-3.6806 3.1632-7.3854 6.2205-11.156 9.1875-3.7708 2.967-7.6233 5.8542-11.484 8.625-3.8611 2.7708-7.7674 5.441-11.719 8.0156s-7.9115 5.0278-11.953 7.4062c-4.0417 2.3785-8.1493 4.6615-12.281 6.8438-4.1319 2.1823-8.2934 4.2952-12.516 6.2812s-8.4844 3.8351-12.797 5.625c-4.3125 1.7899-8.6753 3.5156-13.078 5.1094-4.4028 1.5937-8.8663 3.0556-13.359 4.4531-4.4931 1.3976-9.0104 2.7361-13.594 3.9375-4.5833 1.2014-9.2482 2.2761-13.922 3.2812s-9.3924 1.9098-14.156 2.7188-9.5364 1.5434-14.391 2.1562c-4.8542 0.61281-9.7743 1.1302-14.719 1.5469z" fill="#0969da"/>
</svg>
