<?xml version="1.0" encoding="UTF-8"?>
<svg width="40" height="40" version="1.1" viewBox="0 -960 960 960" xmlns="http://www.w3.org/2000/svg">
 <path d="m480.08-326.67q72.255 0 122.76-50.578 50.5-50.579 50.5-122.83 0-72.255-50.578-122.76-50.579-50.5-122.83-50.5-72.255 0-122.76 50.578-50.5 50.579-50.5 122.83 0 72.255 50.578 122.76 50.579 50.5 122.83 50.5zm-0.235-62.666q-46.176 0-78.343-32.324-32.167-32.323-32.167-78.5 0-46.176 32.324-78.343 32.323-32.167 78.5-32.167 46.176 0 78.343 32.324 32.167 32.323 32.167 78.5 0 46.176-32.324 78.343-32.323 32.167-78.5 32.167zm0.157 189.33q-146 0-264.67-82.5-118.67-82.5-175.33-217.5 56.667-135 175.33-217.5 118.67-82.5 264.67-82.5t264.67 82.5q118.67 82.5 175.33 217.5-56.667 135-175.33 217.5-118.67 82.5-264.67 82.5zm0-300m-0.112 233.33q118.44 0 217.61-63.5 99.167-63.501 151.17-169.83-52-106.33-151.05-169.83-99.055-63.5-217.5-63.5-118.44 0-217.61 63.5-99.167 63.501-151.83 169.83 52.667 106.33 151.72 169.83 99.055 63.5 217.5 63.5z"/>
</svg>
