<?xml version="1.0" encoding="UTF-8"?>
<svg width="40" height="40" version="1.1" viewBox="0 -960 960 960" xmlns="http://www.w3.org/2000/svg">
 <path d="M286.667-613.334V-680H840v66.666H286.667Zm0 166.667v-66.666H840v66.666H286.667Zm0 166.667v-66.666H840V-280H286.667ZM153.333-613.334q-13.666 0-23.5-9.833Q120-633 120-647q0-14 9.833-23.5 9.834-9.5 23.833-9.5 14 0 23.5 9.583 9.5 9.584 9.5 23.75 0 13.667-9.583 23.5t-23.75 9.833Zm0 166.667q-13.666 0-23.5-9.833Q120-466.333 120-480.333q0-14 9.833-23.5 9.834-9.5 23.833-9.5 14 0 23.5 9.583t9.5 23.75q0 13.667-9.583 23.5t-23.75 9.833Zm0 166.667q-13.666 0-23.5-9.833Q120-299.667 120-313.666q0-14 9.833-23.5 9.834-9.5 23.833-9.5 14 0 23.5 9.583t9.5 23.75q0 13.666-9.583 23.5Q167.5-280 153.333-280Z"/>
</svg>
